<?xml version="1.0" encoding="UTF-8"?>
<svg version="1.1" xmlns="http://www.w3.org/2000/svg" width="512" height="512">
<path d="M0 0 C1.71314844 -0.00345934 3.42629466 -0.00822575 5.13943624 -0.01418173 C9.83344061 -0.02668346 14.52726156 -0.02052509 19.22126651 -0.01122308 C24.288825 -0.00442956 29.35635217 -0.01491533 34.42390442 -0.02316284 C44.34587741 -0.03649911 54.26778229 -0.03362289 64.18975794 -0.02492492 C72.25392695 -0.01814838 80.31807688 -0.01723153 88.38224792 -0.02049637 C89.53020492 -0.02095607 90.67816192 -0.02141577 91.8609055 -0.0218894 C94.19299512 -0.02284858 96.52508473 -0.02382122 98.85717434 -0.02480717 C120.72256879 -0.03336075 142.5879255 -0.02352741 164.45331377 -0.00740607 C183.21275054 0.00599707 201.97213162 0.00366897 220.73156738 -0.01016235 C242.51899651 -0.02621871 264.30639256 -0.03253678 286.09382677 -0.02332556 C288.41731293 -0.02236992 290.7407991 -0.02142681 293.06428528 -0.02049637 C294.77906197 -0.01980213 294.77906197 -0.01980213 296.52848062 -0.01909386 C304.58248698 -0.01650415 312.63647235 -0.02087459 320.69047546 -0.02793503 C330.50628916 -0.03635082 340.32203088 -0.03406816 350.13783634 -0.0180928 C355.14551306 -0.01021121 360.1530698 -0.00711665 365.16074562 -0.01704025 C369.7462894 -0.02598986 374.33160217 -0.02104982 378.91712505 -0.0051076 C380.57447259 -0.00176094 382.23183972 -0.00345128 383.88917464 -0.01073496 C396.45901488 -0.06173257 405.51845458 0.81553232 415.0513916 9.90438843 C420.90920769 16.58398447 422.35050338 24.22563982 422.34352112 32.90458679 C422.34558311 34.88380882 422.34558311 34.88380882 422.34768677 36.90301514 C422.34414804 38.35830711 422.34051324 39.81359886 422.33679199 41.26889038 C422.33650982 42.80655414 422.33666845 44.34421803 422.3372345 45.88188171 C422.33752128 50.05088598 422.3316437 54.21986145 422.32466054 58.38885903 C422.31840727 62.74772766 422.31782164 67.10659694 422.31663513 71.46546936 C422.31352764 79.71722959 422.30532208 87.96897657 422.29528564 96.22073096 C422.28410645 105.61607141 422.2786095 115.0114125 422.27359021 124.40675795 C422.263139 143.73149646 422.24555081 163.05622263 422.2232666 182.38095093 C423.42487427 182.35738525 423.42487427 182.35738525 424.65075684 182.33334351 C428.32068674 182.27053945 431.9905031 182.23181605 435.6607666 182.19345093 C436.9208252 182.16831421 438.18088379 182.14317749 439.47912598 182.11727905 C448.74094035 182.0447322 456.89459951 182.56697652 464.0357666 189.00595093 C464.74346191 189.61696655 465.45115723 190.22798218 466.18029785 190.85751343 C471.16083723 197.00938424 472.82137725 203.44961185 472.73120117 211.22996521 C472.73744113 212.07322229 472.7436811 212.91647938 472.75011015 213.7852897 C472.76595153 216.58577936 472.75347102 219.38538785 472.74084473 222.18588257 C472.74626974 224.20376591 472.75339453 226.22164529 472.76208496 228.23951721 C472.78027479 233.70225646 472.77326894 239.16469253 472.76056862 244.62743688 C472.75041989 250.35187786 472.75983937 256.07629343 472.76611328 261.80073547 C472.77338363 271.41158698 472.76381739 281.02231539 472.74475098 290.63314819 C472.7229773 301.73670086 472.73003979 312.83995978 472.7520566 323.94350535 C472.77022061 333.48685818 472.77276418 343.03012269 472.76230192 352.57348722 C472.75607333 358.26898636 472.75521414 363.96434751 472.76844788 369.65983772 C472.78002045 375.01404227 472.77195464 380.36786875 472.74887085 385.72203255 C472.74359159 387.68438083 472.7450841 389.64676104 472.75392151 391.60909653 C472.76489141 394.29279754 472.75109636 396.97529544 472.73120117 399.65892029 C472.74012406 400.43101383 472.74904695 401.20310737 472.75824022 401.99859768 C472.65785204 409.00448548 470.05329875 415.10121981 465.0982666 420.13095093 C456.83030814 427.5782198 447.62468253 427.96042073 436.92559814 427.88215637 C435.49405721 427.88605503 434.06252017 427.89169999 432.63099217 427.89892727 C428.72008533 427.91361823 424.80958373 427.903539 420.89869022 427.88919055 C416.67237985 427.87804865 412.44612483 427.8900338 408.21981812 427.89903259 C399.95064698 427.91294375 391.68162887 427.90542529 383.41246507 427.89035701 C373.78123588 427.87347602 364.15004459 427.87670967 354.51880518 427.88045109 C337.33627705 427.88632545 320.15382228 427.87217303 302.97131348 427.84750366 C286.29875949 427.82356917 269.62630344 427.81650576 252.95373535 427.82699585 C234.7913072 427.83840287 216.62892431 427.84033894 198.46649671 427.82589775 C196.53037088 427.82437192 194.59424504 427.82285157 192.6581192 427.82133675 C191.2292372 427.82020002 191.2292372 427.82020002 189.77148889 427.81904034 C183.0575803 427.81429702 176.34369192 427.81614918 169.62978363 427.82040215 C161.45128285 427.82532652 153.27287469 427.81935423 145.09439513 427.79950785 C140.92148873 427.78963121 136.74872343 427.78453483 132.57580948 427.79240036 C128.75651417 427.79945218 124.93750371 427.79266443 121.11824599 427.77479673 C119.73621853 427.77074911 118.35416514 427.7717574 116.97214732 427.7783156 C115.09385086 427.78646649 113.21549921 427.77435769 111.33723068 427.76126766 C110.29386386 427.76023853 109.25049703 427.7592094 108.17551303 427.75814909 C103.39965511 427.14795449 99.38991734 425.20701743 96.4107666 421.38095093 C92.85305176 416.50179915 92.68183336 412.22642464 93.2232666 406.38095093 C95.04861251 401.1077294 97.83045863 398.58404007 102.2232666 395.38095093 C105.91838136 394.14924601 109.32628001 394.25671717 113.17248535 394.28329468 C113.85750122 394.28430176 114.54251709 394.28530884 115.24829102 394.28634644 C117.80246662 394.29157085 120.35661833 394.30553213 122.9107666 394.31845093 C131.4804541 394.34938843 131.4804541 394.34938843 140.2232666 394.38095093 C140.2232666 381.18095093 140.2232666 367.98095093 140.2232666 354.38095093 C133.15996948 354.4045166 133.15996948 354.4045166 125.95397949 354.42855835 C110.39560756 354.47826847 94.83723251 354.51155855 79.27880192 354.53638744 C69.8457795 354.55184193 60.41283244 354.57290432 50.9798584 354.60726929 C42.75598408 354.63721509 34.53216435 354.65653624 26.30823702 354.66321641 C21.95562158 354.6671199 17.60316229 354.67626401 13.250597 354.6981411 C9.14909428 354.71858817 5.04781121 354.7247682 0.94626236 354.72027397 C-0.5544854 354.72109551 -2.05524094 354.72701209 -3.55594444 354.73856735 C-13.43882473 354.81089602 -22.80601751 354.76999775 -30.5267334 347.81845093 C-31.57087402 346.91932983 -31.57087402 346.91932983 -32.6361084 346.00204468 C-39.18118693 337.98790655 -40.50770834 330.54632801 -40.41165161 320.40097046 C-40.41945156 319.12541353 -40.42725152 317.84985661 -40.43528783 316.53564644 C-40.45603951 313.02002756 -40.44590023 309.50509278 -40.43035674 305.98947239 C-40.41899874 302.18842138 -40.43652787 298.38748433 -40.45025635 294.5864563 C-40.47244608 287.15011552 -40.46770669 279.7140276 -40.45319314 272.27767706 C-40.44188405 266.23202286 -40.44037721 260.18643934 -40.44581223 254.14077759 C-40.44696147 252.84827172 -40.44696147 252.84827172 -40.44813394 251.52965462 C-40.44973262 249.77898325 -40.45135369 248.02831191 -40.45299689 246.27764058 C-40.4672419 229.87593491 -40.4508813 213.47436915 -40.42399506 197.07268643 C-40.4016574 183.01065768 -40.40553788 168.94883533 -40.42858887 154.8868103 C-40.45536896 138.5423105 -40.46586872 122.19793321 -40.45052755 105.85341454 C-40.44893487 104.1093178 -40.44736301 102.36522104 -40.44581223 100.62112427 C-40.44504085 99.76307886 -40.44426947 98.90503346 -40.44347472 98.02098668 C-40.43916434 91.98520338 -40.44642996 85.94949803 -40.45820999 79.91372681 C-40.47225811 72.55433819 -40.46838665 65.1952161 -40.44180627 57.83585787 C-40.42869896 54.08360667 -40.42346236 50.33179924 -40.44005203 46.5795517 C-40.45778812 42.50629485 -40.4365591 38.43415062 -40.41165161 34.3609314 C-40.42280522 33.18290514 -40.43395883 32.00487888 -40.44545043 30.79115486 C-40.34173577 22.0368937 -38.20113753 15.57397131 -32.6361084 8.75985718 C-31.94001465 8.16044312 -31.2439209 7.56102905 -30.5267334 6.94345093 C-29.49806152 6.01725952 -29.49806152 6.01725952 -28.4486084 5.07235718 C-19.55204899 -0.55952912 -10.10684495 -0.04441773 0 0 Z " fill="#020303" transform="translate(39.7767333984375,63.619049072265625)"/>
<path d="M0 0 C132.33 0 264.66 0 401 0 C401 12.54 401 25.08 401 38 C395.01883057 38.0093457 389.03766113 38.01869141 382.87524414 38.02832031 C363.12582499 38.06206921 343.37651008 38.11740541 323.62717533 38.18390274 C311.65175721 38.22369664 299.67640483 38.2560874 287.70092773 38.27099609 C277.26199463 38.28401073 266.82320617 38.31097077 256.38435453 38.35461307 C250.85804673 38.37723191 245.33191736 38.39291041 239.80555916 38.39188385 C234.60082603 38.3911375 229.39648742 38.40907856 224.19185638 38.44116783 C222.28477465 38.44966577 220.37764866 38.45141749 218.47055626 38.44580269 C201.85242344 38.39759455 201.85242344 38.39759455 188 47 C182.95002758 54.10736859 182.67754903 61.09509702 182.5859375 69.5234375 C182.56657135 70.62475006 182.5472052 71.72606262 182.5272522 72.86074829 C182.46765072 76.36542099 182.42114838 79.87012688 182.375 83.375 C182.33680238 85.75652445 182.29774961 88.13803534 182.2578125 90.51953125 C182.16196512 96.34623354 182.07686099 102.17301799 182 108 C180.91125076 108.00546844 180.91125076 108.00546844 179.80050659 108.01104736 C172.94440556 108.04898822 166.08869341 108.10590995 159.23293877 108.18390274 C155.70865959 108.22333303 152.18462859 108.25554282 148.66015625 108.27099609 C144.60376248 108.28910326 140.54829512 108.33907322 136.4921875 108.390625 C135.23260223 108.39185364 133.97301697 108.39308228 132.67526245 108.39434814 C123.99870786 108.45921267 123.99870786 108.45921267 117 113 C114.34721372 116.80048388 114.70442198 120.98433958 114.70947266 125.43701172 C114.70275543 126.28627228 114.69603821 127.13553284 114.68911743 128.01052856 C114.67012544 130.81697446 114.66621264 133.62318135 114.6640625 136.4296875 C114.65763542 138.38257953 114.65090713 140.33547059 114.64389038 142.2883606 C114.63191462 146.38220451 114.62820987 150.47596402 114.62939453 154.56982422 C114.62959774 159.81115123 114.60229498 165.05193614 114.56785011 170.29313469 C114.54559358 174.32693967 114.54155661 178.36061393 114.54261398 182.39447403 C114.54025617 184.32654819 114.53142252 186.25862586 114.51594925 188.1906395 C114.49631447 190.89554364 114.50211726 193.59927548 114.51416016 196.30419922 C114.50292114 197.09920837 114.49168213 197.89421753 114.48010254 198.71331787 C114.53868469 203.90124878 115.50079517 206.93030349 119 211 C122.16316265 213.27617916 125.03615231 213.26969426 128.87011719 213.31884766 C130.64150055 213.34865219 130.64150055 213.34865219 132.44866943 213.37905884 C133.71857727 213.39061005 134.98848511 213.40216125 136.296875 213.4140625 C138.25273529 213.44311172 138.25273529 213.44311172 140.24810791 213.4727478 C143.70693936 213.52401083 147.16580966 213.56366744 150.62481689 213.60089111 C154.15752732 213.64096753 157.69007693 213.69204322 161.22265625 213.7421875 C168.14832646 213.83887764 175.07409111 213.92228728 182 214 C182 217.96 182 221.92 182 226 C121.94 226 61.88 226 0 226 C0 151.42 0 76.84 0 0 Z " fill="#ECF3FB" transform="translate(30,118)"/>
<path d="M0 0 C62.04 0 124.08 0 188 0 C188 19.8 188 39.6 188 60 C163 60.25 163 60.25 155.15234375 60.29785156 C153.08070679 60.32723873 151.00908956 60.35806761 148.9375 60.390625 C147.87724609 60.39175293 146.81699219 60.39288086 145.72460938 60.39404297 C137.60027933 60.54969602 132.663042 62.557972 126 67 C124.00779247 67.24774647 124.00779247 67.24774647 121.69340515 67.24482727 C120.81446594 67.24876495 119.93552673 67.25270264 119.029953 67.25675964 C118.06833755 67.25106461 117.10672211 67.24536957 116.1159668 67.23950195 C115.10104156 67.24151611 114.08611633 67.24353027 113.04043579 67.24560547 C110.83383647 67.24915424 108.62722699 67.24837987 106.4206295 67.24382973 C102.92790851 67.23824719 99.43552093 67.24737823 95.94282532 67.2610321 C86.01142936 67.29820398 76.08014515 67.31669762 66.14868164 67.30541992 C60.07611967 67.29956896 54.00402527 67.31783152 47.93155861 67.35130882 C45.61713785 67.3592659 43.30266617 67.35798176 40.98825645 67.34728432 C37.7490598 67.33295898 34.51133233 67.34922839 31.2722168 67.37231445 C30.31667404 67.36054672 29.36113129 67.34877899 28.37663269 67.33665466 C23.99282777 67.39789739 20.93474165 67.57483097 17.42048645 70.35173035 C13.53509188 74.60276531 13.82764046 78.51732132 13.796875 83.9921875 C13.79117493 84.77514191 13.78547485 85.55809631 13.77960205 86.36477661 C13.77016155 88.02067721 13.76362184 89.67659651 13.75976562 91.33251953 C13.75006248 93.85873366 13.71903218 96.38413308 13.6875 98.91015625 C13.68096925 100.52082851 13.67571906 102.13150658 13.671875 103.7421875 C13.6595282 104.49442596 13.6471814 105.24666443 13.63446045 106.021698 C13.65779286 111.54701653 14.75740604 114.63153196 18.52319336 118.60868835 C22.34787881 120.75715215 26.04116453 120.43931382 30.35839844 120.43237305 C31.30507889 120.4425647 32.25175934 120.45275635 33.22712708 120.46325684 C36.35460285 120.49343844 39.48177259 120.50266079 42.609375 120.51171875 C44.77843244 120.52856158 46.94748009 120.54671128 49.11651611 120.56611633 C54.82437076 120.61366529 60.53218574 120.6434431 66.24017334 120.66955566 C72.06514318 120.6993364 77.88997627 120.74587528 83.71484375 120.79101562 C95.14315771 120.87710452 106.57149978 120.94442505 118 121 C118 125.95 118 130.9 118 136 C116.79810028 136.00142502 115.59620056 136.00285004 114.35787964 136.00431824 C103.02813151 136.02099158 91.69874239 136.0637758 80.36918449 136.13209057 C74.54457327 136.16637344 68.72022471 136.19147263 62.89550781 136.19555664 C57.27371873 136.1998367 51.6525223 136.228276 46.03091812 136.27343178 C43.88677549 136.28641599 41.74256196 136.29071122 39.59838486 136.28615379 C36.59342294 136.28125455 33.59019762 136.30731133 30.58544922 136.34057617 C29.69999924 136.33195053 28.81454926 136.32332489 27.90226746 136.31443787 C23.6722432 136.39287643 20.84454405 136.68023202 17.46340942 139.35371399 C13.52106675 143.58872509 13.82775202 147.4974683 13.796875 152.9921875 C13.79117493 153.77514191 13.78547485 154.55809631 13.77960205 155.36477661 C13.77016155 157.02067721 13.76362184 158.67659651 13.75976562 160.33251953 C13.75006248 162.85873366 13.71903218 165.38413308 13.6875 167.91015625 C13.68096925 169.52082851 13.67571906 171.13150658 13.671875 172.7421875 C13.6595282 173.49442596 13.6471814 174.24666443 13.63446045 175.021698 C13.65779286 180.54701653 14.75740604 183.63153196 18.52319336 187.60868835 C22.34787881 189.75715215 26.04116453 189.43931382 30.35839844 189.43237305 C31.30507889 189.4425647 32.25175934 189.45275635 33.22712708 189.46325684 C36.35460285 189.49343844 39.48177259 189.50266079 42.609375 189.51171875 C44.77843244 189.52856158 46.94748009 189.54671128 49.11651611 189.56611633 C54.82437076 189.61366529 60.53218574 189.6434431 66.24017334 189.66955566 C72.06514318 189.6993364 77.88997627 189.74587528 83.71484375 189.79101562 C95.14315771 189.87710452 106.57149978 189.94442505 118 190 C118 194.95 118 199.9 118 205 C116.79810028 205.00142502 115.59620056 205.00285004 114.35787964 205.00431824 C103.02813151 205.02099158 91.69874239 205.0637758 80.36918449 205.13209057 C74.54457327 205.16637344 68.72022471 205.19147263 62.89550781 205.19555664 C57.27371873 205.1998367 51.6525223 205.228276 46.03091812 205.27343178 C43.88677549 205.28641599 41.74256196 205.29071122 39.59838486 205.28615379 C36.59342294 205.28125455 33.59019762 205.30731133 30.58544922 205.34057617 C29.69999924 205.33195053 28.81454926 205.32332489 27.90226746 205.31443787 C23.6722432 205.39287643 20.84454405 205.68023202 17.46340942 208.35371399 C13.52106675 212.58872509 13.82775202 216.4974683 13.796875 221.9921875 C13.79117493 222.77514191 13.78547485 223.55809631 13.77960205 224.36477661 C13.77016155 226.02067721 13.76362184 227.67659651 13.75976562 229.33251953 C13.75006248 231.85873366 13.71903218 234.38413308 13.6875 236.91015625 C13.68096925 238.52082851 13.67571906 240.13150658 13.671875 241.7421875 C13.6595282 242.49442596 13.6471814 243.24666443 13.63446045 244.021698 C13.65361746 248.55824444 14.07743488 251.47953254 17 255 C22.11851827 259.25292865 25.94555447 259.58323907 32.31005859 259.54589844 C33.22777039 259.55623611 34.14548218 259.56657379 35.09100342 259.57722473 C38.11032806 259.60661315 41.12898118 259.60815108 44.1484375 259.609375 C46.24737829 259.62435929 48.3463073 259.64108696 50.44522095 259.65948486 C55.95909166 259.70314239 61.47280332 259.72315406 66.98681641 259.73822021 C72.61760863 259.75779694 78.24822923 259.79976638 83.87890625 259.83984375 C94.91921788 259.91512868 105.95949106 259.96543067 117 260 C117 264.29 117 268.58 117 273 C78.39 273 39.78 273 0 273 C0 182.91 0 92.82 0 0 Z " fill="#E9F0F8" transform="translate(243,187)"/>
<path d="M0 0 C4.20714438 -0.26221814 8.41218891 -0.42147604 12.625 -0.5625 C13.81480469 -0.63791016 15.00460937 -0.71332031 16.23046875 -0.79101562 C24.92979757 -1.00971384 24.92979757 -1.00971384 28.05175781 1.93579102 C29.6171875 4.34375 29.6171875 4.34375 30.81591797 6.75195312 C32.89307742 10.69555812 35.83421837 12.61140612 40 14 C48.23224787 15.27707902 54.73211947 14.51375562 61.81640625 10.09375 C64.86768201 7.33934926 64.86768201 7.33934926 69 0 C77.25 0 85.5 0 94 0 C94 61.38 94 122.76 94 186 C63.31 186 32.62 186 1 186 C-0.67713191 184.32286809 -0.12218508 182.26784234 -0.12908131 180.02889246 C-0.12616847 179.31197986 -0.12325563 178.59506727 -0.12025452 177.85643005 C-0.12110894 177.10011844 -0.12196337 176.34380683 -0.12284368 175.56457669 C-0.12450076 173.01104518 -0.11897342 170.45757827 -0.11352539 167.90405273 C-0.11324354 166.08126833 -0.11340121 164.2584838 -0.1139679 162.43569946 C-0.11425596 157.47103112 -0.10835779 152.50638672 -0.10139394 147.54172397 C-0.09516188 142.35936525 -0.09455672 137.17700605 -0.09336853 131.99464417 C-0.09025478 122.17382442 -0.08204079 112.35301574 -0.07201904 102.53220087 C-0.06085927 91.35464094 -0.0553478 80.17708048 -0.05032361 68.99951637 C-0.03985822 45.99967143 -0.02225792 22.99983633 0 0 Z " fill="#E7EDF5" transform="translate(389,276)"/>
<path d="M0 0 C1.04477005 -0.00540298 2.0895401 -0.01080597 3.16596985 -0.01637268 C6.60564854 -0.02883917 10.04448693 -0.01238307 13.48413086 0.00561523 C15.88113957 0.00546021 18.27814852 0.00397068 20.67515564 0.00120544 C25.69272984 -0.00017759 30.71001785 0.01236488 35.72753906 0.03515625 C42.155845 0.06355549 48.58367609 0.0607979 55.01201725 0.04806614 C59.95942738 0.0411086 64.90672793 0.04889895 69.85412407 0.06132317 C72.22437558 0.06583582 74.59463886 0.0661761 76.96489143 0.06225777 C80.2776206 0.05934452 83.58969709 0.07585842 86.90234375 0.09765625 C88.36830994 0.09090378 88.36830994 0.09090378 89.8638916 0.08401489 C95.85137226 0.14940951 100.45693021 0.76700364 105.03100586 5.03686523 C108.94621902 10.15675937 109.53404954 12.97007338 109.5269165 19.2946167 C109.52988763 20.10880263 109.53285875 20.92298855 109.5359199 21.76184678 C109.54463076 24.50554808 109.54611717 27.24920587 109.54760742 29.99291992 C109.55223395 31.95389907 109.55725839 33.91487731 109.56265259 35.87585449 C109.57579551 41.21481129 109.58222536 46.55375549 109.58666325 51.89272594 C109.58959125 55.2265636 109.59369556 58.56039779 109.59816742 61.8942337 C109.61184804 72.31987294 109.62151163 82.74550429 109.62536931 93.17115188 C109.62985 105.21530928 109.64739606 117.2593532 109.67636991 129.3034761 C109.69797391 138.60629566 109.70807293 147.90908326 109.70941043 157.21192765 C109.71045948 162.77108762 109.71638847 168.33014099 109.73423004 173.8892746 C109.75068827 179.11936017 109.75287712 184.34925875 109.74409103 189.57936096 C109.74331942 191.49901581 109.74767965 193.41868061 109.75754929 195.33831024 C109.77023486 197.95938584 109.76441047 200.57979585 109.75396729 203.2008667 C109.76605189 204.33988926 109.76605189 204.33988926 109.77838063 205.50192237 C109.72800295 210.9097542 108.60903671 215.05985409 104.92163086 219.11108398 C100.71315157 222.37070189 97.58073329 224.75002227 92.17636108 224.75567627 C91.34389862 224.76131592 90.51143616 224.76695557 89.65374756 224.77276611 C88.29627411 224.76669342 88.29627411 224.76669342 86.91137695 224.76049805 C85.95149872 224.76400269 84.99162048 224.76750732 84.00265503 224.77111816 C80.82583401 224.77992753 77.64923545 224.77408627 74.47241211 224.76733398 C72.26006019 224.76868153 70.04770857 224.7706228 67.83535767 224.77313232 C63.1933511 224.77608306 58.55142145 224.77178996 53.90942383 224.76245117 C47.97811389 224.75109667 42.04698576 224.75759103 36.1156826 224.7695961 C31.54300589 224.77685017 26.97037168 224.77450982 22.39769363 224.76934052 C20.21216434 224.76801174 18.02663111 224.76962452 15.84110641 224.77429962 C12.77328147 224.77941873 9.70574324 224.77157763 6.63793945 224.76049805 C5.29868408 224.76657074 5.29868408 224.76657074 3.93237305 224.77276611 C-3.08417243 224.72617827 -10.41718893 224.40590943 -16.55102539 220.75170898 C-21.19463205 215.68595627 -22.05370529 210.82917189 -22.00120544 204.15185547 C-22.00659098 203.32608474 -22.01197652 202.50031401 -22.01752526 201.64951992 C-22.03179994 198.89046133 -22.02470239 196.13188284 -22.01757812 193.37280273 C-22.0232819 191.39152644 -22.03024618 189.41025342 -22.03837585 187.4289856 C-22.05632022 182.05302904 -22.05513661 176.6772356 -22.04943347 171.30125809 C-22.0463439 166.81300778 -22.0524314 162.32478891 -22.05847222 157.83654308 C-22.07251964 147.2493192 -22.07095393 136.662176 -22.05957031 126.07495117 C-22.04808475 115.15149682 -22.06217173 104.22828786 -22.08896679 93.30486584 C-22.11111307 83.92551792 -22.11776369 74.5462471 -22.11189038 65.16687489 C-22.10851754 59.56528153 -22.11095781 53.96384555 -22.1281414 48.36227417 C-22.14359163 43.09595204 -22.13967622 37.82999401 -22.12083626 32.56368637 C-22.11714527 30.63113348 -22.12027365 28.69855372 -22.13072205 26.76602554 C-22.1438986 24.12745001 -22.13241448 21.49008582 -22.11473083 18.8515625 C-22.12913834 17.70495982 -22.12913834 17.70495982 -22.14383692 16.53519344 C-22.0727812 11.3810768 -20.87632562 8.46341397 -17.61352539 4.50170898 C-11.85848466 0.13200667 -7.07742551 -0.07015818 0 0 Z M-3.61352539 19.50170898 C-3.6368516 43.60544056 -3.6545032 67.70917046 -3.66533756 91.81291103 C-3.67050111 103.00385858 -3.67754493 114.19479913 -3.68896484 125.38574219 C-3.69890988 135.13600276 -3.70537839 144.88625828 -3.70761389 154.63652378 C-3.7089213 159.80259997 -3.71200908 164.96866165 -3.71925545 170.1347332 C-3.72601283 174.99127232 -3.72814293 179.84779088 -3.72663307 184.70433426 C-3.72690953 186.4922414 -3.72891632 188.28014919 -3.73273087 190.06805229 C-3.73766372 192.49810697 -3.7365252 194.92808275 -3.73377991 197.35813904 C-3.73669275 198.07505163 -3.73960559 198.79196422 -3.7426067 199.53060144 C-4.01318388 202.7970642 -4.01318388 202.7970642 -2.61352539 205.50170898 C28.07647461 205.50170898 58.76647461 205.50170898 90.38647461 205.50170898 C90.38647461 144.12170898 90.38647461 82.74170898 90.38647461 19.50170898 C82.13647461 19.50170898 73.88647461 19.50170898 65.38647461 19.50170898 C63.40647461 22.47170898 61.42647461 25.44170898 59.38647461 28.50170898 C52.95662104 33.42456563 47.75488384 34.31272132 39.69506836 33.97436523 C34.86448761 33.28428227 31.84475889 31.92186969 28.38647461 28.50170898 C27.57395753 26.95909924 26.78059752 25.40629216 26.00366211 23.84545898 C23.99647149 20.75797909 23.0833974 19.67617284 19.4675293 18.77099609 C15.94374886 18.61532399 12.53137162 18.71611692 9.01147461 18.93920898 C7.19196289 19.00011719 7.19196289 19.00011719 5.33569336 19.06225586 C2.3485152 19.16810075 -0.63043777 19.31578247 -3.61352539 19.50170898 Z " fill="#508DD6" transform="translate(392.613525390625,256.498291015625)"/>
<path d="M0 0 C66.99 0 133.98 0 203 0 C203 17.82 203 35.64 203 54 C178.62600604 54.09031522 154.25214769 54.16399078 129.87802887 54.20724869 C118.56055203 54.22786848 107.24318659 54.25597807 95.92578125 54.30175781 C86.06082125 54.34164326 76.19594193 54.36743705 66.33090353 54.37635398 C61.10805873 54.3815658 55.88544473 54.39380356 50.66267395 54.42292023 C45.74447446 54.45011619 40.82660037 54.45843649 35.90833282 54.45243073 C34.10561097 54.45352909 32.30287797 54.46145801 30.50022125 54.4768219 C28.03283266 54.49681568 25.56666178 54.49190564 23.09924316 54.48101807 C22.39104762 54.49266943 21.68285207 54.5043208 20.95319605 54.51632524 C15.0422611 54.4461473 9.83518913 52.60911594 5.4657197 48.58806062 C-6.26908245 35.23541725 0 17.2780741 0 0 Z " fill="#E8EFF6" transform="translate(10,354)"/>
<path d="M0 0 C0.66408875 -0.00525696 1.32817749 -0.01051392 2.01239014 -0.01593018 C4.19673536 -0.02907986 6.38034527 -0.02040962 8.56469727 -0.01025391 C10.09017577 -0.01227634 11.61565333 -0.0151892 13.14112854 -0.01895142 C16.33457669 -0.02336814 19.52777264 -0.01696584 22.72119141 -0.00292969 C26.80447479 0.01414752 30.88716592 0.00432656 34.97042751 -0.01364708 C38.11982136 -0.02451511 41.26907604 -0.02102455 44.4184742 -0.0132637 C45.92349379 -0.01126927 47.42852621 -0.01369428 48.93353081 -0.02070236 C51.04196238 -0.02836536 53.14945074 -0.01664597 55.2578125 0 C56.45518539 0.00238678 57.65255829 0.00477356 58.88621521 0.00723267 C64.08401407 0.60592448 67.06896461 2.11570212 70.5372467 6.03991699 C72.61033401 10.23058952 72.75220723 13.35544281 72.6953125 17.96044922 C72.70341698 19.22014778 72.70341698 19.22014778 72.71168518 20.5052948 C72.72414597 23.26870461 72.70769934 26.03106714 72.68969727 28.79443359 C72.68985232 30.72204645 72.69134229 32.64965963 72.69410706 34.57727051 C72.69548986 38.61220118 72.68295271 42.64677587 72.66015625 46.68164062 C72.6317721 51.84664094 72.63451058 57.01104999 72.64724636 62.17609406 C72.65421032 66.15501939 72.64640603 70.13380871 72.63398933 74.11271667 C72.62948182 76.01685565 72.62913191 77.92100926 72.63305473 79.82514954 C72.63597398 82.48904207 72.61942606 85.15212757 72.59765625 87.81591797 C72.6021579 88.5984343 72.60665955 89.38095062 72.61129761 90.18717957 C72.54674938 94.95505238 71.95630939 98.33431581 69.19360352 102.38818359 C64.87303289 106.06974255 61.7965544 106.89102065 56.18188477 106.90576172 C55.50789642 106.912771 54.83390808 106.91978027 54.13949585 106.92700195 C51.92793674 106.9445013 49.71767395 106.93298958 47.50610352 106.91943359 C45.95963294 106.92213087 44.41316402 106.92601525 42.86669922 106.93103027 C39.63207792 106.93691435 36.3978997 106.92839814 33.16333008 106.90966797 C29.02723418 106.88687844 24.89217662 106.90000748 20.75611877 106.92395782 C17.56465907 106.93844572 14.37344357 106.93379626 11.18197632 106.92344666 C9.65741857 106.9207876 8.13283831 106.92402014 6.60830688 106.93336487 C4.47338551 106.94358072 2.34012093 106.92796299 0.20532227 106.90576172 C-1.00679932 106.90257935 -2.2189209 106.89939697 -3.46777344 106.89611816 C-8.46293368 106.13615978 -11.44575939 104.01792883 -14.65614319 100.17259216 C-16.21667793 96.39501872 -16.23320369 92.85846894 -16.21044922 88.83764648 C-16.21731247 87.9882399 -16.22417572 87.13883331 -16.23124695 86.26368713 C-16.24951238 83.46256684 -16.2456778 80.66200678 -16.23999023 77.86083984 C-16.2445522 75.9093762 -16.24985782 73.95791417 -16.25587463 72.00645447 C-16.26480527 67.91854318 -16.26238317 63.83082727 -16.25244141 59.74291992 C-16.24095265 54.5094377 -16.26116211 49.2766303 -16.29035854 44.04323673 C-16.30872236 40.01370474 -16.30842769 35.98433439 -16.30272102 31.95477104 C-16.30256783 30.02549734 -16.3086108 28.09621268 -16.3210125 26.16697884 C-16.33592386 23.46692954 -16.32524459 20.76812609 -16.30810547 18.06811523 C-16.31777344 17.27467712 -16.32744141 16.48123901 -16.33740234 15.66375732 C-16.26857235 10.4741589 -15.31070251 7.45145522 -11.80639648 3.38818359 C-7.91950733 0.29362331 -4.90000766 0.00977391 0 0 Z " fill="#6FD5F8" transform="translate(59.806396484375,225.61181640625)"/>
<path d="M0 0 C1.2633807 -0.0083016 1.2633807 -0.0083016 2.55228424 -0.0167709 C5.36133245 -0.03033322 8.16948533 -0.01543236 10.97851562 -0.00050354 C12.99772518 -0.00428832 15.01693214 -0.00978967 17.03613281 -0.01687622 C22.51133092 -0.03082725 27.98621465 -0.01966336 33.46139526 -0.00316501 C39.19431804 0.01069551 44.92722276 0.00422427 50.66015625 0.0007019 C60.28716085 -0.00199942 69.91404071 0.01146876 79.54101562 0.03465271 C90.66723021 0.06126189 101.79323624 0.06300921 112.91947174 0.05126435 C123.62757533 0.04048085 134.33560356 0.04667816 145.04370117 0.06081963 C149.59856958 0.06657444 154.15338275 0.06650069 158.70825195 0.06175423 C164.07304782 0.0569779 169.43761566 0.06711349 174.80236816 0.08870888 C176.76997102 0.09426795 178.73759583 0.09475013 180.7052002 0.08975601 C183.39356261 0.08378879 186.08123126 0.09633587 188.76953125 0.11352539 C189.93408718 0.10451032 189.93408718 0.10451032 191.12216949 0.09531313 C196.2513586 0.15484291 199.82608805 1.10323264 204.38476562 3.50120544 C208.77776465 8.24102019 209.50957014 10.86184761 209.49829102 17.24583435 C209.49843704 17.93862991 209.49858307 18.63142548 209.49873352 19.34521484 C209.49803581 21.63943086 209.49025004 23.93356608 209.48242188 26.22776794 C209.48055719 27.81674658 209.47913353 29.40572579 209.47813416 30.9947052 C209.47431294 35.18029869 209.46448601 39.36585758 209.45343018 43.55143738 C209.44320757 47.82114697 209.43863471 52.09086215 209.43359375 56.36058044 C209.4228634 64.74080467 209.40579171 73.12100076 209.38476562 81.50120544 C206.08476562 81.50120544 202.78476562 81.50120544 199.38476562 81.50120544 C199.37889938 80.68101425 199.37303314 79.86082306 199.36698914 79.01577759 C199.30911272 71.29052973 199.23706567 63.56560628 199.14905071 55.8406477 C199.10430109 51.86904105 199.06505541 47.89753807 199.03833008 43.92576599 C199.01234243 40.09357924 198.97197309 36.26179044 198.92157936 32.42984962 C198.90487973 30.9670589 198.89338474 29.50419929 198.88715172 28.04132652 C198.87754369 25.99391728 198.84952732 23.9475332 198.81713867 21.90037537 C198.80603561 20.73455429 198.79493256 19.56873322 198.78349304 18.36758423 C198.5946071 15.58904153 198.5946071 15.58904153 197.35567951 13.84544563 C194.27647486 11.74530789 191.05032594 12.09240035 187.45141602 12.12698364 C186.63425897 12.12300924 185.81710192 12.11903483 184.97518253 12.11493999 C182.22742052 12.10528857 179.48016973 12.11715216 176.73242188 12.12889099 C174.76642667 12.12646396 172.80043269 12.12274551 170.83444214 12.11782837 C165.48741585 12.10840356 160.14057209 12.11785818 154.79356003 12.1311605 C149.20555332 12.14245525 143.61755586 12.13836902 138.02954102 12.13641357 C128.64433806 12.13552997 119.25920724 12.14662482 109.87402344 12.1650238 C99.01368694 12.18619242 88.15345617 12.18970169 77.29310322 12.18346184 C66.85838229 12.17777282 56.4236987 12.1834084 45.98898315 12.19463539 C41.54246329 12.1992875 37.09596622 12.20015259 32.64944458 12.19804955 C27.41608457 12.19616986 22.1828326 12.20424588 16.94949722 12.22010994 C15.02536593 12.22436288 13.10122369 12.2251966 11.17708969 12.22241974 C8.55731183 12.21921178 5.9378596 12.22824462 3.31811523 12.24050903 C2.55071046 12.23672971 1.78330568 12.23295039 0.99264622 12.22905654 C-2.75700736 12.26026178 -4.41325786 12.36655444 -7.61523438 14.50120544 C-8.06897749 16.65849788 -8.06897749 16.65849788 -7.9927578 19.20548916 C-8.00058104 20.20387229 -8.00840428 21.20225543 -8.01646459 22.2308926 C-8.00977243 23.33583177 -8.00308026 24.44077094 -7.9961853 25.57919312 C-8.00320526 27.33042531 -8.00320526 27.33042531 -8.01036704 29.11703593 C-8.02029601 32.36768928 -8.01667757 35.61800931 -8.00740838 38.86865461 C-8.00064449 42.37043222 -8.01108589 45.87216339 -8.01934814 49.37393188 C-8.03271666 56.23813169 -8.0297938 63.10223332 -8.02111022 69.96643703 C-8.01434575 75.54369902 -8.01341158 81.12093341 -8.01668167 86.69819832 C-8.01714137 87.49081448 -8.01760107 88.28343065 -8.0180747 89.10006549 C-8.01903384 90.71006724 -8.02000648 92.32006897 -8.02099247 93.93007071 C-8.02955564 109.04197711 -8.01969802 124.15382899 -8.00359137 139.26572645 C-7.99018993 152.24130081 -7.99251304 165.21679465 -8.00634766 178.19236755 C-8.0223916 193.24721035 -8.02872885 208.3020053 -8.01951087 223.35685545 C-8.01855518 224.96136923 -8.01761207 226.56588301 -8.01668167 228.1703968 C-8.01598743 229.35468194 -8.01598743 229.35468194 -8.01527917 230.56289203 C-8.01268552 236.13497696 -8.01706838 241.70703162 -8.02412033 247.27911186 C-8.0325225 254.0675426 -8.03028246 260.85586923 -8.0142781 267.644288 C-8.00637757 271.10996287 -8.00333381 274.57546399 -8.01322556 278.0411377 C-8.02137024 281.79301226 -8.0112048 285.54439151 -7.9961853 289.29623413 C-8.00622355 290.9502968 -8.00622355 290.9502968 -8.01646459 292.63777488 C-8.00864135 293.63876577 -8.00081811 294.63975665 -7.9927578 295.67108059 C-7.99227074 296.5376574 -7.99178368 297.40423421 -7.99128187 298.29707092 C-7.53213305 300.98828887 -6.77300187 301.87482951 -4.61523438 303.50120544 C-2.2281654 303.95989936 -2.2281654 303.95989936 0.49101257 303.89993286 C1.54690582 303.91247101 2.60279907 303.92500916 3.69068909 303.93792725 C4.84874557 303.93649216 6.00680206 303.93505707 7.19995117 303.93357849 C8.41958557 303.94377014 9.63921997 303.95396179 10.89581299 303.96446228 C14.24069782 303.98950201 17.5851433 304.00132239 20.93008399 304.00731635 C24.42552939 304.01668898 27.92084724 304.04289139 31.41621399 304.06732178 C38.03533312 304.11102124 44.65442755 304.13954694 51.27364713 304.16264516 C58.80931764 304.18967844 66.34486005 304.23359103 73.88043916 304.27893388 C89.38181551 304.37182947 104.88321598 304.4434876 120.38476562 304.50120544 C120.86462529 305.77177727 121.34362492 307.04267392 121.82226562 308.31370544 C122.08910156 309.02140076 122.3559375 309.72909607 122.63085938 310.45823669 C123.24701749 312.1279294 123.82195797 313.81278248 124.38476562 315.50120544 C107.42540384 315.57134156 90.46608744 315.62421612 73.50661373 315.65664196 C65.63171981 315.67209921 57.75691609 315.6931668 49.88208008 315.7275238 C43.0169535 315.75746124 36.15189226 315.77678876 29.28670222 315.78347093 C25.65289981 315.78737586 22.01928431 315.79652894 18.38554192 315.81839561 C14.32522222 315.84263024 10.2652258 315.84317265 6.20483398 315.84178162 C5.00505417 315.85256744 3.80527435 315.86335327 2.56913757 315.87446594 C-4.77949497 315.84720959 -10.12133411 315.42852728 -15.92773438 310.56370544 C-18.91969036 306.90687035 -19.86498085 304.17672836 -19.87250328 299.45267773 C-19.88217662 297.91625442 -19.88217662 297.91625442 -19.89204538 296.34879225 C-19.88894817 295.22517061 -19.88585097 294.10154896 -19.88265991 292.94387817 C-19.88719103 291.74891859 -19.89172214 290.55395901 -19.89639056 289.32278854 C-19.90687345 286.00460738 -19.90835826 282.68664269 -19.90600181 279.3684603 C-19.90559404 275.790297 -19.91662901 272.21216616 -19.92611694 268.63401794 C-19.94273684 261.62305856 -19.94822694 254.6121328 -19.9493417 247.60115536 C-19.95029175 241.90241141 -19.9543999 236.20367856 -19.96074295 230.50493813 C-19.97835844 214.3501289 -19.9875814 198.19534626 -19.986082 182.04052737 C-19.98600209 181.16943834 -19.98592218 180.29834931 -19.98583984 179.40086365 C-19.98575808 178.5287117 -19.98567632 177.65655975 -19.98559208 176.75797895 C-19.9847792 162.62385631 -20.00391655 148.48984025 -20.03211658 134.35574844 C-20.06083958 119.84509116 -20.07465718 105.33448586 -20.07292902 90.82379943 C-20.0722649 82.67630725 -20.07776705 74.52892678 -20.09928513 66.38146019 C-20.11748933 59.44422835 -20.12185063 52.50715884 -20.10826628 45.56991347 C-20.10173255 42.03076412 -20.10163354 38.49192626 -20.11897278 34.95280647 C-20.13758241 31.11488766 -20.12515931 27.27742455 -20.10971069 23.43948364 C-20.11999782 22.32255416 -20.13028495 21.20562468 -20.1408838 20.05484885 C-20.08398784 13.67028219 -19.66588273 9.5571329 -15.61523438 4.50120544 C-10.81871023 0.42505123 -6.1042357 -0.07551963 0 0 Z " fill="#4D88CF" transform="translate(241.615234375,165.49879455566406)"/>
<path d="M0 0 C0.69530606 -0.00350607 1.39061213 -0.00701215 2.10698807 -0.01062447 C4.44229647 -0.0199456 6.77735589 -0.01501336 9.11267471 -0.01015663 C10.80174597 -0.01389254 12.49081551 -0.01849382 14.17988229 -0.02388728 C18.82587506 -0.03614015 23.47179594 -0.03585412 28.11780119 -0.03349853 C33.1268052 -0.03309093 38.13578598 -0.04412403 43.14477921 -0.05361366 C52.96033363 -0.07023743 62.77586403 -0.07572384 72.59143135 -0.07683842 C80.56940473 -0.07778829 88.54737017 -0.08189553 96.52534103 -0.08823967 C119.1386 -0.10585622 141.75183996 -0.11507795 164.36510584 -0.11357872 C165.5845825 -0.11349881 166.80405916 -0.1134189 168.06048965 -0.11333656 C169.28145341 -0.1132548 170.50241716 -0.11317304 171.76037982 -0.1130888 C191.54805205 -0.11227589 211.33564816 -0.13141367 231.12329838 -0.1596133 C251.43547846 -0.18833226 271.74762141 -0.20215412 292.05982232 -0.20042574 C303.46581628 -0.19976148 314.87173046 -0.20526979 326.27770615 -0.22678185 C335.98932176 -0.24498068 345.70082143 -0.24935167 355.41244671 -0.235763 C360.3674796 -0.22922668 365.32228997 -0.22914015 370.27730179 -0.2464695 C374.81494664 -0.26217593 379.35219208 -0.25936141 383.88982704 -0.24190123 C385.52980172 -0.23882597 387.16980602 -0.24248354 388.80974576 -0.25362138 C398.25412363 -0.31350659 406.6324909 -0.26998442 414.16302872 6.07367516 C414.60646622 6.64988609 415.04990372 7.22609703 415.50677872 7.81976891 C415.97084122 8.39855797 416.43490372 8.97734703 416.91302872 9.57367516 C419.36353411 13.3457031 419.12792593 16.83991754 419.12030411 21.20722008 C419.12045013 21.90991524 419.12059616 22.6126104 419.12074661 23.33659935 C419.12005028 25.65784359 419.11227098 27.97900745 419.10443497 30.30023766 C419.10256979 31.9102073 419.10114636 33.52017752 419.10014725 35.13014793 C419.09632989 39.36669037 419.08650626 43.60319851 419.07544327 47.8397274 C419.06521236 52.16314797 419.06064602 56.48657409 419.05560684 60.81000328 C419.04488331 69.29244089 419.02781625 77.77485063 419.00677872 86.25726891 C415.70677872 85.26726891 412.40677872 84.27726891 409.00677872 83.25726891 C409.0053537 82.41424217 409.00392868 81.57121544 409.00246048 80.70264244 C408.98462915 72.75689365 408.94301226 64.8117019 408.87468815 56.86622047 C408.84040036 52.78132603 408.81530549 48.69680626 408.81122208 44.61176109 C408.80694279 40.6691891 408.77851252 36.72746255 408.73334694 32.78515434 C408.7203598 31.28132362 408.71606862 29.77739178 408.72062492 28.27351189 C408.72552303 26.16593274 408.69948236 24.06083228 408.66620255 21.95355797 C408.65620979 20.15486259 408.65620979 20.15486259 408.64601517 18.31982994 C408.2678757 15.1389964 408.2678757 15.1389964 405.90362501 13.09731913 C402.32957931 10.82711805 400.23378953 10.75611608 396.01800156 10.75390434 C394.97577744 10.7451837 394.97577744 10.7451837 393.9124983 10.73628688 C391.578624 10.72166073 389.24579713 10.73558336 386.91193008 10.74933434 C385.22412944 10.74472643 383.53633281 10.73837426 381.8485446 10.73042536 C377.20614186 10.71369366 372.56406712 10.7219958 367.92166305 10.73437023 C362.91681404 10.74340271 357.91202231 10.72945996 352.9071846 10.71845055 C343.10095818 10.70064146 333.29485405 10.70451595 323.48862278 10.71610111 C315.52061973 10.72512576 307.55265101 10.72636363 299.58464432 10.72200584 C298.45164263 10.72139291 297.31864095 10.72077998 296.15130588 10.72014847 C293.8498092 10.7188696 291.54831252 10.71757275 289.24681586 10.71625811 C267.65337761 10.70484531 246.06000722 10.717977 224.46658009 10.73945957 C205.92867611 10.75733118 187.3908723 10.75422727 168.85297012 10.73578453 C147.33807935 10.71439019 125.8232481 10.70594401 104.30834818 10.71823359 C102.01520317 10.71950781 99.72205815 10.7207653 97.42891312 10.72200584 C96.30057052 10.72262295 95.17222792 10.72324005 94.00969312 10.72387585 C86.04902595 10.72733306 78.08839647 10.72149242 70.12773514 10.71208763 C60.42953362 10.70088222 50.73146164 10.70387698 41.03327501 10.72521061 C36.0827969 10.73574066 31.13253496 10.7398096 26.18205833 10.726614 C21.6532428 10.71472469 17.12484451 10.72119523 12.59606701 10.74252421 C10.95482359 10.747005 9.31354517 10.74469101 7.67232412 10.73502105 C5.44622913 10.72290773 3.22157488 10.73527848 0.99555588 10.75390434 C-0.24228008 10.75455375 -1.48011603 10.75520316 -2.75546217 10.75587225 C-6.64994057 11.3589679 -8.31469238 12.39205121 -10.99322128 15.25726891 C-11.73044555 17.40027703 -11.73044555 17.40027703 -11.6240778 19.7475071 C-11.64423575 21.09707729 -11.64423575 21.09707729 -11.66480094 22.47391152 C-11.64879105 23.95055862 -11.64879105 23.95055862 -11.63245773 25.45703697 C-11.64081341 26.50584408 -11.64916909 27.55465118 -11.65777797 28.63524032 C-11.67978138 32.16095175 -11.66607761 35.68562895 -11.65264511 39.21137047 C-11.66109407 41.73410397 -11.6717362 44.25683094 -11.68441391 46.77954674 C-11.70678851 52.21657447 -11.71385966 57.65328186 -11.70706749 63.09034538 C-11.69727362 70.95134585 -11.71499181 78.81209467 -11.7394348 86.67305443 C-11.77834366 99.4267174 -11.79498847 112.18030848 -11.79766464 124.93402672 C-11.80031196 137.32338715 -11.81342456 149.71266357 -11.84063339 162.10199547 C-11.84230677 162.86561544 -11.84398015 163.62923542 -11.84570424 164.41599539 C-11.85416368 168.24683549 -11.8628291 172.07767509 -11.87159693 175.9085145 C-11.94407356 207.69142441 -11.98006117 239.47427739 -11.99322128 271.25726891 C-15.29322128 271.25726891 -18.59322128 271.25726891 -21.99322128 271.25726891 C-22.10731062 238.65319413 -22.19578318 206.04917693 -22.24854793 173.44494808 C-22.25480138 169.59479037 -22.261273 165.74463306 -22.26787949 161.89447594 C-22.26984681 160.74474167 -22.26984681 160.74474167 -22.27185389 159.57178044 C-22.2936041 147.16462586 -22.33302348 134.75758724 -22.37898526 122.35050142 C-22.42576065 109.61749029 -22.45351896 96.88453986 -22.46366376 84.15144634 C-22.47052071 76.29584544 -22.49216902 68.44057233 -22.53280362 60.58507234 C-22.56238474 54.55908188 -22.56549271 48.53337275 -22.55875969 42.50730133 C-22.56013551 40.03697823 -22.5700849 37.56664274 -22.58924866 35.09639359 C-22.61413955 31.72247945 -22.60813943 28.3499657 -22.59449387 24.97601891 C-22.60905807 23.99934793 -22.62362228 23.02267694 -22.63862783 22.01640987 C-22.5677371 15.5280827 -21.12882292 11.29850978 -16.99322128 6.25726891 C-11.74427784 1.27077264 -7.1547295 0.00813748 0 0 Z " fill="#4E8AD2" transform="translate(31.993221282958984,73.74273109436035)"/>
<path d="M0 0 C2.16425263 0.00315277 4.327128 -0.02027855 6.49121094 -0.0456543 C7.87402172 -0.04792823 9.25683616 -0.04863035 10.63964844 -0.04760742 C11.89310059 -0.05058838 13.14655273 -0.05356934 14.43798828 -0.05664062 C18.05862125 0.34387187 19.91042922 1.15160384 22.80371094 3.31567383 C24.49902344 5.50708008 24.49902344 5.50708008 25.92871094 7.87817383 C27.80186295 10.96128078 28.72745246 12.26483485 31.80371094 14.31567383 C36.95284134 15.15761425 40.7273276 14.99339667 45.17871094 12.19067383 C47.74545966 9.37947285 49.72852582 6.49762434 51.80371094 3.31567383 C56.5050735 -1.29698378 62.86815531 -0.20496779 69.02050781 -0.18530273 C71.1657609 -0.18433203 73.30741312 -0.2259306 75.45214844 -0.27026367 C76.82714104 -0.27547281 78.20214597 -0.27815883 79.57714844 -0.27807617 C80.81899902 -0.28516602 82.06084961 -0.29225586 83.34033203 -0.29956055 C87.91561834 0.51319298 89.53085252 2.07158375 92.80371094 5.31567383 C94.30875108 8.3257541 93.94807511 11.42736798 93.94415283 14.72894287 C93.94712395 15.50229327 93.95009508 16.27564368 93.95315623 17.07242894 C93.96186552 19.67793543 93.96335336 22.2833961 93.96484375 24.88891602 C93.9694704 26.7513743 93.97449485 28.61383163 93.97988892 30.47628784 C93.99303085 35.54665814 93.99946152 40.61701519 94.00389957 45.68739986 C94.00682778 48.85372789 94.01093213 52.02005228 94.01540375 55.18637848 C94.02908421 65.08876045 94.03874783 74.99113412 94.04260564 84.89352489 C94.04708606 96.33207947 94.06463097 107.77051454 94.09360623 119.20903277 C94.11521271 128.04476503 94.12530939 136.88046365 94.12664676 145.71622205 C94.12769565 150.9959276 94.13362115 156.27552089 94.15146637 161.55519867 C94.16792886 166.52263897 94.17011139 171.48988241 94.16132736 176.45734024 C94.16055598 178.28024192 94.16491306 180.1031541 94.17478561 181.92602921 C94.18747838 184.4157445 94.18164303 186.90475981 94.17120361 189.39447021 C94.18328822 190.47512855 94.18328822 190.47512855 94.19561696 191.57761836 C94.15019535 196.21333773 93.2622862 199.38604203 90.80371094 203.31567383 C85.88635575 206.81395072 81.2091941 206.74987312 75.40527344 206.71972656 C74.47769226 206.72658981 73.55011108 206.73345306 72.59442139 206.74052429 C69.53902733 206.75877318 66.48414761 206.75495787 63.42871094 206.74926758 C61.29931471 206.75382989 59.16991996 206.75913561 57.04052734 206.76515198 C52.58197032 206.77407904 48.12359246 206.77166401 43.66503906 206.76171875 C37.95518082 206.75022253 32.24594041 206.77045299 26.53616333 206.79963589 C22.140341 206.81799134 17.74466696 206.81770682 13.34881592 206.81199837 C11.24370455 206.81184511 9.13858317 206.81789294 7.0335083 206.83028984 C4.0893283 206.84518745 1.14629291 206.8345319 -1.79785156 206.81738281 C-2.66452454 206.82705078 -3.53119751 206.83671875 -4.4241333 206.84667969 C-9.80714349 206.78110938 -12.99796633 205.99898753 -17.19628906 202.31567383 C-20.32867335 198.18753693 -20.62605542 194.59863743 -20.58396912 189.5796051 C-20.58935465 188.80777498 -20.59474019 188.03594485 -20.60028893 187.24072593 C-20.61457986 184.6582052 -20.60746211 182.07619621 -20.6003418 179.49365234 C-20.60604478 177.64060046 -20.61300875 175.7875521 -20.62113953 173.93450928 C-20.63909401 168.90352062 -20.63789824 163.87270616 -20.63219714 158.84169507 C-20.62910861 154.64179219 -20.635194 150.44192294 -20.64123589 146.24202484 C-20.65528702 136.33417306 -20.65371491 126.42640748 -20.64233398 116.51855469 C-20.63085178 106.29664079 -20.64492887 96.07498922 -20.67173046 85.8531099 C-20.69388047 77.07674834 -20.70052642 68.30046917 -20.69465405 59.52408165 C-20.69128165 54.28240963 -20.69371838 49.0409058 -20.71090508 43.79925728 C-20.72636096 38.87027868 -20.72243367 33.94168899 -20.70359993 29.01272583 C-20.69991031 27.20434074 -20.70303338 25.39592693 -20.71348572 23.58756828 C-20.7266721 21.11750508 -20.71516994 18.64873387 -20.69749451 16.1787262 C-20.70709951 15.46422462 -20.71670452 14.74972304 -20.72660059 14.01356989 C-20.65296206 9.00725427 -19.34721696 6.16422812 -16.19628906 2.31567383 C-11.3440585 -0.91914655 -5.67740677 -0.01734835 0 0 Z M-10.19628906 10.31567383 C-10.21961527 34.41940541 -10.23726687 58.5231353 -10.24810123 82.62687588 C-10.25326478 93.81782343 -10.2603086 105.00876397 -10.27172852 116.19970703 C-10.28167356 125.94996761 -10.28814206 135.70022312 -10.29037756 145.45048863 C-10.29168497 150.61656481 -10.29477275 155.78262649 -10.30201912 160.94869804 C-10.3087765 165.80523716 -10.3109066 170.66175573 -10.30939674 175.5182991 C-10.3096732 177.30620625 -10.31167999 179.09411404 -10.31549454 180.88201714 C-10.32042739 183.31207181 -10.31928888 185.7420476 -10.31654358 188.17210388 C-10.31945642 188.88901648 -10.32236926 189.60592907 -10.32537037 190.34456629 C-10.59594755 193.61102905 -10.59594755 193.61102905 -9.19628906 196.31567383 C21.49371094 196.31567383 52.18371094 196.31567383 83.80371094 196.31567383 C83.80371094 134.93567383 83.80371094 73.55567383 83.80371094 10.31567383 C75.55371094 10.31567383 67.30371094 10.31567383 58.80371094 10.31567383 C56.82371094 13.28567383 54.84371094 16.25567383 52.80371094 19.31567383 C46.37385736 24.23853047 41.17212017 25.12668616 33.11230469 24.78833008 C28.28172394 24.09824711 25.26199522 22.73583454 21.80371094 19.31567383 C20.99119386 17.77306408 20.19783385 16.220257 19.42089844 14.65942383 C17.41370781 11.57194393 16.50063372 10.49013769 12.88476562 9.58496094 C9.36098519 9.42928883 5.94860795 9.53008176 2.42871094 9.75317383 C0.60919922 9.81408203 0.60919922 9.81408203 -1.24707031 9.8762207 C-4.23424848 9.9820656 -7.21320144 10.12974731 -10.19628906 10.31567383 Z " fill="#040507" transform="translate(399.1962890625,265.684326171875)"/>
<path d="M0 0 C122.1 0 244.2 0 370 0 C370 4.62 370 9.24 370 14 C247.9 14 125.8 14 0 14 C0 9.38 0 4.76 0 0 Z " fill="#508DD7" transform="translate(62,94)"/>
<path d="M0 0 C1.01037827 0.00222061 2.02075653 0.00444122 3.06175232 0.00672913 C4.79745483 0.0069104 4.79745483 0.0069104 6.56822205 0.00709534 C8.40664673 0.01476929 8.40664673 0.01476929 10.2822113 0.02259827 C11.4017218 0.02360535 12.5212323 0.02461243 13.67466736 0.02565002 C17.87589027 0.03090102 22.07709864 0.04486213 26.27830505 0.05775452 C35.66268005 0.07837952 45.04705505 0.09900452 54.71580505 0.12025452 C54.71580505 28.50025452 54.71580505 56.88025452 54.71580505 86.12025452 C45.33143005 86.14087952 35.94705505 86.16150452 26.27830505 86.18275452 C23.31160828 86.19185852 20.3449115 86.20096252 17.28831482 86.21034241 C14.95294744 86.21326132 12.61757956 86.21580994 10.2822113 86.21791077 C8.44378662 86.22558472 8.44378662 86.22558472 6.56822205 86.2334137 C5.41108704 86.23353455 4.25395203 86.2336554 3.06175232 86.23377991 C2.05137405 86.23600052 1.04099579 86.23822113 0 86.24050903 C-2.28419495 86.12025452 -2.28419495 86.12025452 -3.28419495 85.12025452 C-3.38460952 82.50875164 -3.42036551 79.92367087 -3.41358948 77.31166077 C-3.4153418 76.49382111 -3.41709412 75.67598145 -3.41889954 74.83335876 C-3.42331879 72.11646941 -3.42037981 69.39964459 -3.41700745 66.68275452 C-3.41768046 64.80327848 -3.41865047 62.92380252 -3.41990662 61.04432678 C-3.42138369 57.09990106 -3.41922873 53.15549793 -3.41456604 49.21107483 C-3.40886875 44.14312949 -3.4121477 39.0752371 -3.4181385 34.0072937 C-3.42174386 30.12468564 -3.42060565 26.24209024 -3.41801071 22.35948181 C-3.41734137 20.49028009 -3.4181701 18.62107723 -3.42049026 16.75187683 C-3.42301638 14.14416948 -3.41917679 11.5365491 -3.41358948 8.92884827 C-3.41561371 8.14855255 -3.41763794 7.36825684 -3.41972351 6.5643158 C-3.39424472 0.17869458 -3.39424472 0.17869458 0 0 Z " fill="#F4C74B" transform="translate(157.28419494628906,235.87974548339844)"/>
<path d="M0 0 C1.2936422 0.01078583 1.2936422 0.01078583 2.61341858 0.02178955 C3.52079269 0.0214975 4.42816681 0.02120544 5.36303711 0.02090454 C8.37156128 0.02230135 11.37983985 0.03787905 14.38832092 0.05352783 C16.47054407 0.05725671 18.55276898 0.06010427 20.63499451 0.06210327 C26.12266359 0.06974956 31.61022726 0.08940659 37.09785461 0.11151123 C42.69466221 0.13194824 48.29148679 0.14110039 53.88832092 0.15118408 C64.87535392 0.17265156 75.86228093 0.20784179 86.84925842 0.24884033 C86.84925842 12.12884033 86.84925842 24.00884033 86.84925842 36.24884033 C74.75810874 36.29395915 62.66701463 36.33068021 50.57579994 36.35246468 C44.96184292 36.36291817 39.3479463 36.37710587 33.73402405 36.39971924 C28.31998981 36.42139187 22.9060138 36.43339715 17.49193954 36.43859482 C15.42259682 36.44230063 13.35325741 36.44953677 11.28393936 36.46030045 C8.39369477 36.47474124 5.50369322 36.4768214 2.61341858 36.47589111 C1.75099045 36.48308167 0.88856232 36.49027222 0 36.49768066 C-5.92263725 36.47694465 -5.92263725 36.47694465 -8.15074158 34.24884033 C-8.40953064 31.11602783 -8.40953064 31.11602783 -8.41636658 27.12384033 C-8.41828003 26.42114014 -8.42019348 25.71843994 -8.42216492 24.9944458 C-8.42352633 23.50827679 -8.4198329 22.02209588 -8.41148376 20.53594971 C-8.40078311 18.25768388 -8.41137997 15.98020656 -8.42417908 13.70196533 C-8.42285747 12.25925525 -8.42029506 10.81654567 -8.41636658 9.37384033 C-8.41411072 8.05641846 -8.41185486 6.73899658 -8.40953064 5.38165283 C-7.93232674 -0.39521555 -5.11664002 0.0179141 0 0 Z " fill="#F36179" transform="translate(274.15074157714844,400.75115966796875)"/>
<path d="M0 0 C1.2936422 0.01078583 1.2936422 0.01078583 2.61341858 0.02178955 C3.52079269 0.0214975 4.42816681 0.02120544 5.36303711 0.02090454 C8.37156128 0.02230135 11.37983985 0.03787905 14.38832092 0.05352783 C16.47054407 0.05725671 18.55276898 0.06010427 20.63499451 0.06210327 C26.12266359 0.06974956 31.61022726 0.08940659 37.09785461 0.11151123 C42.69466221 0.13194824 48.29148679 0.14110039 53.88832092 0.15118408 C64.87535392 0.17265156 75.86228093 0.20784179 86.84925842 0.24884033 C86.84925842 12.12884033 86.84925842 24.00884033 86.84925842 36.24884033 C74.75810874 36.29395915 62.66701463 36.33068021 50.57579994 36.35246468 C44.96184292 36.36291817 39.3479463 36.37710587 33.73402405 36.39971924 C28.31998981 36.42139187 22.9060138 36.43339715 17.49193954 36.43859482 C15.42259682 36.44230063 13.35325741 36.44953677 11.28393936 36.46030045 C8.39369477 36.47474124 5.50369322 36.4768214 2.61341858 36.47589111 C1.75099045 36.48308167 0.88856232 36.49027222 0 36.49768066 C-5.92263725 36.47694465 -5.92263725 36.47694465 -8.15074158 34.24884033 C-8.40953064 31.11602783 -8.40953064 31.11602783 -8.41636658 27.12384033 C-8.41828003 26.42114014 -8.42019348 25.71843994 -8.42216492 24.9944458 C-8.42352633 23.50827679 -8.4198329 22.02209588 -8.41148376 20.53594971 C-8.40078311 18.25768388 -8.41137997 15.98020656 -8.42417908 13.70196533 C-8.42285747 12.25925525 -8.42029506 10.81654567 -8.41636658 9.37384033 C-8.41411072 8.05641846 -8.41185486 6.73899658 -8.40953064 5.38165283 C-7.93232674 -0.39521555 -5.11664002 0.0179141 0 0 Z " fill="#EDC149" transform="translate(274.15074157714844,331.75115966796875)"/>
<path d="M0 0 C0.66408875 -0.00525696 1.32817749 -0.01051392 2.01239014 -0.01593018 C4.19673536 -0.02907986 6.38034527 -0.02040962 8.56469727 -0.01025391 C10.09017577 -0.01227634 11.61565333 -0.0151892 13.14112854 -0.01895142 C16.33457669 -0.02336814 19.52777264 -0.01696584 22.72119141 -0.00292969 C26.80447479 0.01414752 30.88716592 0.00432656 34.97042751 -0.01364708 C38.11982136 -0.02451511 41.26907604 -0.02102455 44.4184742 -0.0132637 C45.92349379 -0.01126927 47.42852621 -0.01369428 48.93353081 -0.02070236 C51.04196238 -0.02836536 53.14945074 -0.01664597 55.2578125 0 C56.45518539 0.00238678 57.65255829 0.00477356 58.88621521 0.00723267 C64.08401407 0.60592448 67.06896461 2.11570212 70.5372467 6.03991699 C72.61033401 10.23058952 72.75220723 13.35544281 72.6953125 17.96044922 C72.70341698 19.22014778 72.70341698 19.22014778 72.71168518 20.5052948 C72.72414597 23.26870461 72.70769934 26.03106714 72.68969727 28.79443359 C72.68985232 30.72204645 72.69134229 32.64965963 72.69410706 34.57727051 C72.69548986 38.61220118 72.68295271 42.64677587 72.66015625 46.68164062 C72.6317721 51.84664094 72.63451058 57.01104999 72.64724636 62.17609406 C72.65421032 66.15501939 72.64640603 70.13380871 72.63398933 74.11271667 C72.62948182 76.01685565 72.62913191 77.92100926 72.63305473 79.82514954 C72.63597398 82.48904207 72.61942606 85.15212757 72.59765625 87.81591797 C72.6021579 88.5984343 72.60665955 89.38095062 72.61129761 90.18717957 C72.54674938 94.95505238 71.95630939 98.33431581 69.19360352 102.38818359 C64.87303289 106.06974255 61.7965544 106.89102065 56.18188477 106.90576172 C55.50789642 106.912771 54.83390808 106.91978027 54.13949585 106.92700195 C51.92793674 106.9445013 49.71767395 106.93298958 47.50610352 106.91943359 C45.95963294 106.92213087 44.41316402 106.92601525 42.86669922 106.93103027 C39.63207792 106.93691435 36.3978997 106.92839814 33.16333008 106.90966797 C29.02723418 106.88687844 24.89217662 106.90000748 20.75611877 106.92395782 C17.56465907 106.93844572 14.37344357 106.93379626 11.18197632 106.92344666 C9.65741857 106.9207876 8.13283831 106.92402014 6.60830688 106.93336487 C4.47338551 106.94358072 2.34012093 106.92796299 0.20532227 106.90576172 C-1.00679932 106.90257935 -2.2189209 106.89939697 -3.46777344 106.89611816 C-8.46293368 106.13615978 -11.44575939 104.01792883 -14.65614319 100.17259216 C-16.21667793 96.39501872 -16.23320369 92.85846894 -16.21044922 88.83764648 C-16.21731247 87.9882399 -16.22417572 87.13883331 -16.23124695 86.26368713 C-16.24951238 83.46256684 -16.2456778 80.66200678 -16.23999023 77.86083984 C-16.2445522 75.9093762 -16.24985782 73.95791417 -16.25587463 72.00645447 C-16.26480527 67.91854318 -16.26238317 63.83082727 -16.25244141 59.74291992 C-16.24095265 54.5094377 -16.26116211 49.2766303 -16.29035854 44.04323673 C-16.30872236 40.01370474 -16.30842769 35.98433439 -16.30272102 31.95477104 C-16.30256783 30.02549734 -16.3086108 28.09621268 -16.3210125 26.16697884 C-16.33592386 23.46692954 -16.32524459 20.76812609 -16.30810547 18.06811523 C-16.31777344 17.27467712 -16.32744141 16.48123901 -16.33740234 15.66375732 C-16.26857235 10.4741589 -15.31070251 7.45145522 -11.80639648 3.38818359 C-7.91950733 0.29362331 -4.90000766 0.00977391 0 0 Z M-5.80639648 11.38818359 C-5.90681106 13.99968647 -5.94256705 16.58476724 -5.93579102 19.19677734 C-5.93754333 20.014617 -5.93929565 20.83245667 -5.94110107 21.67507935 C-5.94552033 24.3919687 -5.94258135 27.10879352 -5.93920898 29.82568359 C-5.939882 31.70515963 -5.94085201 33.58463559 -5.94210815 35.46411133 C-5.94358523 39.40853705 -5.94143027 43.35294018 -5.93676758 47.29736328 C-5.93107029 52.36530862 -5.93434924 57.43320101 -5.94034004 62.50114441 C-5.9439454 66.38375247 -5.94280719 70.26634787 -5.94021225 74.1489563 C-5.93954291 76.01815802 -5.94037164 77.88736088 -5.9426918 79.75656128 C-5.94521792 82.36426863 -5.94137833 84.97188901 -5.93579102 87.57958984 C-5.93781525 88.35988556 -5.93983948 89.14018127 -5.94192505 89.94412231 C-6.25111706 93.45895552 -6.25111706 93.45895552 -4.80639648 96.38818359 C-2.75626802 96.48757985 -0.70268257 96.51617912 1.34985352 96.51757812 C2.66791992 96.52073029 3.98598633 96.52388245 5.34399414 96.52713013 C6.79386427 96.52534035 8.2437341 96.5232894 9.69360352 96.52099609 C11.16951514 96.52166917 12.64542665 96.52263922 14.12133789 96.52389526 C17.21835381 96.52537207 20.31534094 96.52321823 23.41235352 96.51855469 C27.390689 96.5128574 31.36895703 96.5161365 35.34729004 96.52212715 C38.39608268 96.52573323 41.44485922 96.52459397 44.49365234 96.52199936 C45.96093758 96.52133022 47.42822426 96.52215807 48.89550781 96.52447891 C50.94278945 96.52700616 52.99007618 96.5224742 55.03735352 96.51757812 C56.20459961 96.51678253 57.3718457 96.51598694 58.57446289 96.51516724 C61.119998 96.68580071 61.119998 96.68580071 62.19360352 95.38818359 C62.29401809 92.77668072 62.32977408 90.19159995 62.32299805 87.57958984 C62.32475037 86.76175018 62.32650269 85.94391052 62.32830811 85.10128784 C62.33272736 82.38439849 62.32978838 79.66757367 62.32641602 76.95068359 C62.32708903 75.07120755 62.32805904 73.1917316 62.32931519 71.31225586 C62.33079226 67.36783013 62.3286373 63.42342701 62.32397461 59.47900391 C62.31827732 54.41105856 62.32155627 49.34316617 62.32754707 44.27522278 C62.33115243 40.39261472 62.33001422 36.51001932 62.32741928 32.62741089 C62.32674994 30.75820917 62.32757867 28.88900631 62.32989883 27.01980591 C62.33242495 24.41209855 62.32858536 21.80447818 62.32299805 19.19677734 C62.32603439 18.02633377 62.32603439 18.02633377 62.32913208 16.83224487 C62.63832409 13.31741167 62.63832409 13.31741167 61.19360352 10.38818359 C59.14347505 10.28878733 57.0898896 10.26018807 55.03735352 10.25878906 C53.71928711 10.2556369 52.4012207 10.25248474 51.04321289 10.24923706 C49.59334276 10.25102684 48.14347294 10.25307779 46.69360352 10.25537109 C45.21769189 10.25469802 43.74178038 10.25372796 42.26586914 10.25247192 C39.16885322 10.25099512 36.07186609 10.25314895 32.97485352 10.2578125 C28.99651803 10.26350979 25.01825 10.26023069 21.03991699 10.25424004 C17.99112435 10.25063396 14.94234781 10.25177322 11.89355469 10.25436783 C10.42626945 10.25503697 8.95898277 10.25420912 7.49169922 10.25188828 C5.44441759 10.24936103 3.39713085 10.25389299 1.34985352 10.25878906 C0.18260742 10.25958466 -0.98463867 10.26038025 -2.18725586 10.26119995 C-4.73279096 10.09056648 -4.73279096 10.09056648 -5.80639648 11.38818359 Z " fill="#000000" transform="translate(59.806396484375,225.61181640625)"/>
<path d="M0 0 C1.32708733 0.00539291 1.32708733 0.00539291 2.6809845 0.01089478 C4.07108734 0.01067574 4.07108734 0.01067574 5.48927307 0.01045227 C8.56809285 0.01115178 11.64685295 0.01894595 14.72566223 0.02676392 C16.85415616 0.02862796 18.98265051 0.03005193 21.11114502 0.03105164 C26.72537919 0.03487789 32.33958766 0.04470909 37.95381165 0.05575562 C43.67788851 0.06596743 49.40196951 0.07054876 55.12605286 0.07559204 C66.36630036 0.08633126 77.60652202 0.10392892 88.84675598 0.12442017 C88.51675598 11.67442017 88.18675598 23.22442017 87.84675598 35.12442017 C75.7556063 35.16953899 63.66451219 35.20626004 51.5732975 35.22804451 C45.95934048 35.23849801 40.34544386 35.2526857 34.73152161 35.27529907 C29.31748737 35.2969717 23.90351136 35.30897698 18.4894371 35.31417465 C16.42009438 35.31788047 14.35075497 35.32511661 12.28143692 35.33588028 C9.39119233 35.35032107 6.50119078 35.35240123 3.61091614 35.35147095 C2.74848801 35.3586615 1.88605988 35.36585205 0.99749756 35.3732605 C-4.9251397 35.35252449 -4.9251397 35.35252449 -7.15324402 33.12442017 C-7.34038388 30.69874897 -7.4090968 28.3894435 -7.38371277 25.96426392 C-7.38325455 25.25919205 -7.38279633 24.55412018 -7.38232422 23.8276825 C-7.37930264 22.33730384 -7.37141912 20.84692833 -7.35905457 19.3565979 C-7.34078857 17.06750384 -7.33854493 14.7788139 -7.33879089 12.48965454 C-7.33387608 11.04368748 -7.32804792 9.59772317 -7.32121277 8.15176392 C-7.32009995 7.46323837 -7.31898712 6.77471283 -7.31784058 6.06532288 C-7.25305349 -0.37426797 -6.30685778 0.01082753 0 0 Z " fill="#6ED2F5" transform="translate(273.1532440185547,263.8755798339844)"/>
<path d="M0 0 C0.64574982 -0.0065712 1.29149963 -0.0131424 1.95681763 -0.01991272 C4.09710809 -0.03964753 6.23732837 -0.051309 8.37768555 -0.0612793 C9.47434571 -0.06739259 9.47434571 -0.06739259 10.59316063 -0.07362938 C14.46330864 -0.09449155 18.33342119 -0.10879222 22.20361328 -0.11816406 C26.19856905 -0.12922508 30.19296727 -0.16362023 34.18772602 -0.20333576 C37.26156134 -0.22949875 40.3352638 -0.2378556 43.40920067 -0.24144554 C44.88159129 -0.2463129 46.35397592 -0.25793129 47.82625771 -0.27648354 C49.88982749 -0.30086884 51.95195483 -0.29991224 54.015625 -0.29296875 C55.7752935 -0.30176811 55.7752935 -0.30176811 57.57051086 -0.31074524 C61.34915994 0.27781877 62.9939698 1.530914 65.7019043 4.17700195 C67.68873827 8.1506699 66.97446558 13.12020633 67.0144043 17.48950195 C67.05791016 19.05861328 67.05791016 19.05861328 67.10229492 20.65942383 C67.16603745 28.36246363 67.16603745 28.36246363 64.93237305 32.2824707 C60.8216444 35.77407035 57.87410809 36.43277098 52.48388672 36.49926758 C50.59623848 36.52809021 50.59623848 36.52809021 48.67045593 36.55749512 C47.29943572 36.56719231 45.92840703 36.57574967 44.55737305 36.58325195 C43.14496357 36.59476568 41.73255411 36.60628101 40.32014465 36.61779785 C37.36038769 36.63878348 34.40073881 36.65049087 31.44091797 36.6574707 C27.66106838 36.66842944 23.88266378 36.71646909 20.10326672 36.77341461 C17.18544945 36.81079523 14.26797576 36.82108514 11.34993935 36.82414246 C9.95731017 36.83016894 8.56468513 36.84613674 7.17229271 36.87251282 C-5.05244911 37.08754295 -5.05244911 37.08754295 -9.64453125 33.32348633 C-14.12915489 28.75666308 -13.57848987 23.3805727 -13.6730957 17.36450195 C-13.71047852 16.4744043 -13.74786133 15.58430664 -13.78637695 14.66723633 C-13.84577423 10.2157406 -13.77772278 7.14379652 -10.8996582 3.6027832 C-7.05467573 0.01759684 -5.17777501 0.04353804 0 0 Z " fill="#080606" transform="translate(409.298095703125,415.822998046875)"/>
<path d="M0 0 C1.89271637 -0.01925285 1.89271637 -0.01925285 3.82366943 -0.03889465 C5.20828865 -0.04706316 6.59291231 -0.05450668 7.97753906 -0.0612793 C8.6743 -0.06535482 9.37106094 -0.06943035 10.08893585 -0.07362938 C13.7786886 -0.09449328 17.46840414 -0.10879209 21.15820312 -0.11816406 C24.96250317 -0.12921364 28.76621588 -0.16359487 32.57030869 -0.20333576 C35.50092628 -0.22953416 38.43140482 -0.23785883 41.36212921 -0.24144554 C42.7639181 -0.2463053 44.16570103 -0.25790202 45.56737518 -0.27648354 C47.53435585 -0.30093274 49.50162257 -0.2974845 51.46875 -0.29296875 C52.58634705 -0.29883499 53.70394409 -0.30470123 54.85540771 -0.31074524 C58.76472693 0.29693721 60.91562697 1.73270031 63.99316406 4.17700195 C66.94987091 8.61206222 66.36141721 12.77081258 66.36816406 17.98950195 C66.39265625 18.97499023 66.41714844 19.96047852 66.44238281 20.97583008 C66.46673945 27.02033509 66.06420068 30.5989775 61.99316406 35.17700195 C59.18573493 36.58071652 56.83542618 36.32759777 53.69506836 36.35400391 C52.72644363 36.3638607 52.72644363 36.3638607 51.73825073 36.37391663 C49.59796027 36.39365143 47.45773999 36.40531291 45.31738281 36.4152832 C44.22072265 36.42139649 44.22072265 36.42139649 43.10190773 36.42763329 C39.23175972 36.44849546 35.36164717 36.46279613 31.49145508 36.47216797 C27.49649931 36.48322899 23.50210109 36.51762414 19.50734234 36.55733967 C16.43350702 36.58350265 13.35980456 36.5918595 10.28586769 36.59544945 C8.81347707 36.6003168 7.34109244 36.6119352 5.86881065 36.63048744 C3.80524087 36.65487274 1.74311352 36.65391615 -0.32055664 36.64697266 C-1.49366898 36.6528389 -2.66678131 36.65870514 -3.8754425 36.66474915 C-7.65499427 36.07604453 -9.28705755 34.81005832 -12.00683594 32.17700195 C-14.81668438 27.88174994 -14.44910091 23.3405393 -14.50683594 18.36450195 C-14.54808594 17.48729492 -14.58933594 16.61008789 -14.63183594 15.70629883 C-14.70262443 9.79103574 -13.6318457 6.71536084 -9.49707031 2.44775391 C-6.41418867 -0.18107947 -3.96281872 0.03500565 0 0 Z " fill="#080705" transform="translate(410.0068359375,369.822998046875)"/>
<path d="M0 0 C1.26488754 -0.00953201 2.52977509 -0.01906403 3.83299255 -0.02888489 C5.21035795 -0.02862345 6.58772336 -0.02768635 7.96508789 -0.02612305 C9.38228989 -0.03001185 10.79949073 -0.0343469 12.21669006 -0.03910828 C15.18486308 -0.04656321 18.15291714 -0.04628454 21.12109375 -0.04101562 C24.9186335 -0.03522189 28.71568538 -0.05215266 32.51314449 -0.0753603 C35.43944632 -0.09011553 38.36563114 -0.09096693 41.29196358 -0.08785057 C42.69175749 -0.08836289 44.09155811 -0.09358383 45.49131584 -0.10366249 C47.45120373 -0.11604279 49.4111904 -0.10728357 51.37109375 -0.09765625 C52.484879 -0.09828568 53.59866425 -0.0989151 54.74620056 -0.0995636 C58.98979458 0.42907234 61.61552246 2.08121187 64.53344727 5.15014648 C66.83253795 9.16432929 66.26202035 13.63348267 66.25024414 18.1496582 C66.27860352 19.13063477 66.30696289 20.11161133 66.33618164 21.12231445 C66.34859813 25.7226241 66.34739744 29.20926272 63.40649414 32.9074707 C59.47754083 36.40886145 56.61259676 36.4074308 51.5222168 36.45166016 C49.59474106 36.47091301 49.59474106 36.47091301 47.62832642 36.49055481 C46.22365708 36.49872178 44.81898338 36.50616559 43.41430664 36.51293945 C42.35211977 36.51905274 42.35211977 36.51905274 41.26847458 36.52528954 C37.52151534 36.54612928 33.77459251 36.56044091 30.02758789 36.56982422 C26.1615684 36.58089407 22.29612362 36.61530572 18.43030739 36.65499592 C15.45340924 36.68115949 12.47664825 36.68951568 9.49964523 36.6931057 C8.07470181 36.69797114 6.64976449 36.70958412 5.22493362 36.72814369 C3.22911733 36.75252829 1.23302068 36.74915099 -0.76293945 36.74462891 C-1.8975058 36.75049515 -3.03207214 36.75636139 -4.20101929 36.7624054 C-7.92299908 36.16695047 -9.56184431 34.86145254 -12.24975586 32.2746582 C-15.08552393 27.95935897 -14.6175446 23.39706366 -14.62475586 18.3996582 C-14.64924805 17.51407227 -14.67374023 16.62848633 -14.69897461 15.71606445 C-14.72413867 10.08770249 -14.15389639 6.64455585 -10.24975586 2.2746582 C-6.85839113 0.06631874 -3.99555967 0.01654023 0 0 Z " fill="#030304" transform="translate(410.249755859375,324.725341796875)"/>
<path d="M0 0 C19.8 0 39.6 0 60 0 C60 5.28 60 10.56 60 16 C40.2 16 20.4 16 0 16 C0 10.72 0 5.44 0 0 Z " fill="#6ED3F6" transform="translate(406,335)"/>
<path d="M0 0 C19.8 0 39.6 0 60 0 C60 5.28 60 10.56 60 16 C52.32463023 16.02255523 44.64927271 16.04091753 36.97387791 16.05181217 C33.41022578 16.05703995 29.84659743 16.06413569 26.28295898 16.07543945 C22.18993903 16.08834176 18.0969442 16.09322906 14.00390625 16.09765625 C12.07581871 16.10539818 12.07581871 16.10539818 10.10877991 16.11329651 C8.33705666 16.11340981 8.33705666 16.11340981 6.52954102 16.11352539 C4.96067894 16.11685631 4.96067894 16.11685631 3.36012268 16.12025452 C1 16 1 16 0 15 C0 10.05 0 5.1 0 0 Z " fill="#F5627A" transform="translate(406,426)"/>
<path d="M0 0 C1.04590805 0.00222061 2.0918161 0.00444122 3.16941833 0.00672913 C4.35056717 0.00680466 5.531716 0.00688019 6.74865723 0.00695801 C8.03404892 0.01211929 9.31944061 0.01728058 10.64378357 0.02259827 C12.60601112 0.02472069 12.60601112 0.02472069 14.60787964 0.02688599 C18.09150591 0.03071042 21.57509071 0.04054005 25.05870056 0.05158997 C28.6111444 0.06180569 32.16359491 0.06638395 35.71604919 0.07142639 C42.69067736 0.0821624 49.66527108 0.09975859 56.63987732 0.12025452 C56.63987732 5.40025452 56.63987732 10.68025452 56.63987732 16.12025452 C36.83987732 16.12025452 17.03987732 16.12025452 -3.36012268 16.12025452 C-3.36012268 0.17120717 -3.36012268 0.17120717 0 0 Z " fill="#EEC24A" transform="translate(409.36012268066406,379.87974548339844)"/>
<path d="M0 0 C0.9662606 -0.00065712 0.9662606 -0.00065712 1.95204163 -0.00132751 C4.07877029 0.00076058 6.2047081 0.02409104 8.33129883 0.04760742 C9.80674305 0.05320334 11.28219286 0.05747346 12.75764465 0.06047058 C16.63922542 0.0719198 20.52046891 0.10138731 24.4019165 0.13458252 C28.36335691 0.16528193 32.32485186 0.17897562 36.28637695 0.1940918 C44.05801502 0.22625723 51.82937527 0.27745412 59.60083008 0.34057617 C59.80579102 1.11143555 60.01075195 1.88229492 60.22192383 2.67651367 C60.49133789 3.6794043 60.76075195 4.68229492 61.03833008 5.71557617 C61.30516602 6.71331055 61.57200195 7.71104492 61.84692383 8.73901367 C62.50267364 11.29475318 62.50267364 11.29475318 63.60083008 13.34057617 C54.6908108 13.45650784 45.78105176 13.54530996 36.87044239 13.59963703 C32.7326929 13.62571364 28.59545999 13.66107502 24.45800781 13.71777344 C20.46387862 13.77216428 16.47024577 13.80201128 12.47577477 13.81496239 C10.95310338 13.82418976 9.43045868 13.84220934 7.90799904 13.86922646 C5.77221965 13.90561454 3.63848169 13.910518 1.50244141 13.90820312 C0.28776688 13.91930618 -0.92690765 13.93040924 -2.1783905 13.94184875 C-6.32208703 13.168281 -7.82603984 11.61019431 -10.39916992 8.34057617 C-10.39916992 5.45798718 -9.90039651 4.04211182 -8.23661804 1.71342468 C-5.51520109 -0.31988073 -3.36775565 -0.01924432 0 0 Z " fill="#DDE3EB" transform="translate(153.399169921875,467.659423828125)"/>
<path d="M0 0 C6.93 0 13.86 0 21 0 C21 13.2 21 26.4 21 40 C14.07 40 7.14 40 0 40 C0 26.8 0 13.6 0 0 Z " fill="#C7D7E5" transform="translate(191,418)"/>
<path d="M0 0 C3.05661905 2.73486967 3.93974578 4.20163153 4.25 8.3125 C4.1675 9.199375 4.085 10.08625 4 11 C5.0725 10.896875 6.145 10.79375 7.25 10.6875 C11 11 11 11 13.5 13.125 C15 16 15 16 15.0625 19.125 C14 22 14 22 11.75 23.875 C8.91002768 25.03680686 7.03234896 25.25991562 4 25 C4.061875 25.9075 4.12375 26.815 4.1875 27.75 C3.97961136 31.35340306 3.61597369 32.56443829 1 35 C-1.375 35.9375 -1.375 35.9375 -4 36 C-8.59701493 33.80597015 -8.59701493 33.80597015 -10 31 C-10.039992 29.00039988 -10.04346799 26.99952758 -10 25 C-11.258125 24.9175 -12.51625 24.835 -13.8125 24.75 C-16.64452231 24.3784226 -17.77553683 24.17684977 -20.0625 22.375 C-21.4252316 18.92274662 -20.91899141 16.54468114 -20 13 C-16.3558226 10.5705484 -14.28758728 10.83820425 -10 11 C-10.0825 9.9275 -10.165 8.855 -10.25 7.75 C-10 4 -10 4 -8.375 1.5625 C-5.2629338 -0.48491197 -3.65605504 -0.68551032 0 0 Z " fill="#6FD5F9" transform="translate(105,435)"/>
<path d="M0 0 C0.66 0 1.32 0 2 0 C2.23074219 0.53109375 2.46148437 1.0621875 2.69921875 1.609375 C5.34130816 7.33216155 7.89741309 10.62107248 13.8125 13.25 C14.534375 13.4975 15.25625 13.745 16 14 C16 14.66 16 15.32 16 16 C15.39671875 16.27972656 14.7934375 16.55945313 14.171875 16.84765625 C8.33847022 19.77376736 5.6954932 22.04745252 3 28 C2.67 28.66 2.34 29.32 2 30 C1.34 30 0.68 30 0 30 C-0.495 28.783125 -0.99 27.56625 -1.5 26.3125 C-4.24174316 20.7501146 -8.65298559 18.67350721 -14 16 C-14 15.34 -14 14.68 -14 14 C-13.46890625 13.76925781 -12.9378125 13.53851563 -12.390625 13.30078125 C-6.66783845 10.65869184 -3.37892752 8.10258691 -0.75 2.1875 C-0.37875 1.1046875 -0.37875 1.1046875 0 0 Z " fill="#F5C84B" transform="translate(496,142)"/>
<path d="M0 0 C7.26 0 14.52 0 22 0 C22 4.62 22 9.24 22 14 C14.74 14 7.48 14 0 14 C0 9.38 0 4.76 0 0 Z " fill="#F8637C" transform="translate(30,94)"/>
<path d="M0 0 C0.66 0 1.32 0 2 0 C2.20753906 0.53109375 2.41507812 1.0621875 2.62890625 1.609375 C5.11481762 7.30928894 7.37005593 9.39354441 13 12 C13.66 12.33 14.32 12.66 15 13 C15 13.66 15 14.32 15 15 C13.39125 15.61875 13.39125 15.61875 11.75 16.25 C7.33150697 18.16021719 4.77457077 20.29594431 2.75 24.75 C2.5025 25.4925 2.255 26.235 2 27 C1.34 27 0.68 27 0 27 C-0.37125 26.113125 -0.7425 25.22625 -1.125 24.3125 C-3.60468479 19.93172353 -6.46612429 16.86685222 -11.375 15.1875 C-12.179375 15.0946875 -12.179375 15.0946875 -13 15 C-13 14.34 -13 13.68 -13 13 C-12.20335937 12.67128906 -12.20335937 12.67128906 -11.390625 12.3359375 C-6.33381437 10.06590937 -3.68451568 8.04688949 -1 3 C-0.67 2.01 -0.34 1.02 0 0 Z " fill="#FC647C" transform="translate(266,21)"/>
<path d="M0 0 C0.72896484 -0.020625 1.45792969 -0.04125 2.20898438 -0.0625 C7.52590956 -0.10148754 7.52590956 -0.10148754 10.078125 1.5703125 C11.0625 3.25 11.0625 3.25 10.875 6.375 C10.606875 7.32375 10.33875 8.2725 10.0625 9.25 C6.91739907 10.82255046 3.57484555 10.47572668 0.125 10.5 C-0.60396484 10.520625 -1.33292969 10.54125 -2.08398438 10.5625 C-7.40090956 10.60148754 -7.40090956 10.60148754 -9.953125 8.9296875 C-10.9375 7.25 -10.9375 7.25 -10.75 4.125 C-10.481875 3.17625 -10.21375 2.2275 -9.9375 1.25 C-6.79239907 -0.32255046 -3.44984555 0.02427332 0 0 Z " fill="#050505" transform="translate(460.9375,297.75)"/>
<path d="M0 0 C0.72896484 -0.020625 1.45792969 -0.04125 2.20898438 -0.0625 C7.52590956 -0.10148754 7.52590956 -0.10148754 10.078125 1.5703125 C11.0625 3.25 11.0625 3.25 10.875 6.375 C10.606875 7.32375 10.33875 8.2725 10.0625 9.25 C6.91739907 10.82255046 3.57484555 10.47572668 0.125 10.5 C-0.60396484 10.520625 -1.33292969 10.54125 -2.08398438 10.5625 C-7.40090956 10.60148754 -7.40090956 10.60148754 -9.953125 8.9296875 C-10.9375 7.25 -10.9375 7.25 -10.75 4.125 C-10.481875 3.17625 -10.21375 2.2275 -9.9375 1.25 C-6.79239907 -0.32255046 -3.44984555 0.02427332 0 0 Z " fill="#050505" transform="translate(338.9375,199.75)"/>
<path d="M0 0 C0.72896484 -0.020625 1.45792969 -0.04125 2.20898438 -0.0625 C7.52590956 -0.10148754 7.52590956 -0.10148754 10.078125 1.5703125 C11.0625 3.25 11.0625 3.25 10.875 6.375 C10.606875 7.32375 10.33875 8.2725 10.0625 9.25 C6.91739907 10.82255046 3.57484555 10.47572668 0.125 10.5 C-0.60396484 10.520625 -1.33292969 10.54125 -2.08398438 10.5625 C-7.40090956 10.60148754 -7.40090956 10.60148754 -9.953125 8.9296875 C-10.9375 7.25 -10.9375 7.25 -10.75 4.125 C-10.481875 3.17625 -10.21375 2.2275 -9.9375 1.25 C-6.79239907 -0.32255046 -3.44984555 0.02427332 0 0 Z " fill="#050505" transform="translate(303.9375,199.75)"/>
<path d="M0 0 C0.72896484 -0.020625 1.45792969 -0.04125 2.20898438 -0.0625 C7.52590956 -0.10148754 7.52590956 -0.10148754 10.078125 1.5703125 C11.0625 3.25 11.0625 3.25 10.875 6.375 C10.606875 7.32375 10.33875 8.2725 10.0625 9.25 C6.91739907 10.82255046 3.57484555 10.47572668 0.125 10.5 C-0.60396484 10.520625 -1.33292969 10.54125 -2.08398438 10.5625 C-7.40090956 10.60148754 -7.40090956 10.60148754 -9.953125 8.9296875 C-10.9375 7.25 -10.9375 7.25 -10.75 4.125 C-10.481875 3.17625 -10.21375 2.2275 -9.9375 1.25 C-6.79239907 -0.32255046 -3.44984555 0.02427332 0 0 Z " fill="#050505" transform="translate(268.9375,199.75)"/>
<path d="M0 0 C0.72896484 -0.020625 1.45792969 -0.04125 2.20898438 -0.0625 C7.52590956 -0.10148754 7.52590956 -0.10148754 10.078125 1.5703125 C11.0625 3.25 11.0625 3.25 10.875 6.375 C10.606875 7.32375 10.33875 8.2725 10.0625 9.25 C6.91739907 10.82255046 3.57484555 10.47572668 0.125 10.5 C-0.60396484 10.520625 -1.33292969 10.54125 -2.08398438 10.5625 C-7.40090956 10.60148754 -7.40090956 10.60148754 -9.953125 8.9296875 C-10.9375 7.25 -10.9375 7.25 -10.75 4.125 C-10.481875 3.17625 -10.21375 2.2275 -9.9375 1.25 C-6.79239907 -0.32255046 -3.44984555 0.02427332 0 0 Z " fill="#050505" transform="translate(136.9375,131.75)"/>
<path d="M0 0 C0.72896484 -0.020625 1.45792969 -0.04125 2.20898438 -0.0625 C7.52590956 -0.10148754 7.52590956 -0.10148754 10.078125 1.5703125 C11.0625 3.25 11.0625 3.25 10.875 6.375 C10.606875 7.32375 10.33875 8.2725 10.0625 9.25 C6.91739907 10.82255046 3.57484555 10.47572668 0.125 10.5 C-0.60396484 10.520625 -1.33292969 10.54125 -2.08398438 10.5625 C-7.40090956 10.60148754 -7.40090956 10.60148754 -9.953125 8.9296875 C-10.9375 7.25 -10.9375 7.25 -10.75 4.125 C-10.481875 3.17625 -10.21375 2.2275 -9.9375 1.25 C-6.79239907 -0.32255046 -3.44984555 0.02427332 0 0 Z " fill="#050505" transform="translate(101.9375,131.75)"/>
<path d="M0 0 C0.72896484 -0.020625 1.45792969 -0.04125 2.20898438 -0.0625 C7.52590956 -0.10148754 7.52590956 -0.10148754 10.078125 1.5703125 C11.0625 3.25 11.0625 3.25 10.875 6.375 C10.606875 7.32375 10.33875 8.2725 10.0625 9.25 C6.91739907 10.82255046 3.57484555 10.47572668 0.125 10.5 C-0.60396484 10.520625 -1.33292969 10.54125 -2.08398438 10.5625 C-7.40090956 10.60148754 -7.40090956 10.60148754 -9.953125 8.9296875 C-10.9375 7.25 -10.9375 7.25 -10.75 4.125 C-10.481875 3.17625 -10.21375 2.2275 -9.9375 1.25 C-6.79239907 -0.32255046 -3.44984555 0.02427332 0 0 Z " fill="#050505" transform="translate(66.9375,131.75)"/>
<path d="M0 0 C1.97265625 0.265625 1.97265625 0.265625 4.97265625 2.265625 C5.97265625 5.578125 5.97265625 5.578125 5.97265625 9.265625 C3.97265625 12.265625 3.97265625 12.265625 0.97265625 14.265625 C-2.87008205 14.33187911 -5.01935091 14.08461919 -8.02734375 11.640625 C-9.46850663 8.21786315 -8.88292341 5.81957128 -8.02734375 2.265625 C-5.42029477 -0.34142398 -3.55396134 0.02657167 0 0 Z " fill="#F5C84B" transform="translate(51.02734375,431.734375)"/>
<path d="M0 0 C1.97265625 0.265625 1.97265625 0.265625 4.97265625 2.265625 C5.97265625 5.578125 5.97265625 5.578125 5.97265625 9.265625 C3.97265625 12.265625 3.97265625 12.265625 0.97265625 14.265625 C-2.87008205 14.33187911 -5.01935091 14.08461919 -8.02734375 11.640625 C-9.46850663 8.21786315 -8.88292341 5.81957128 -8.02734375 2.265625 C-5.42029477 -0.34142398 -3.55396134 0.02657167 0 0 Z " fill="#88D146" transform="translate(485.02734375,187.734375)"/>
<path d="M0 0 C1.97265625 0.265625 1.97265625 0.265625 4.97265625 2.265625 C5.97265625 5.578125 5.97265625 5.578125 5.97265625 9.265625 C3.97265625 12.265625 3.97265625 12.265625 0.97265625 14.265625 C-2.87008205 14.33187911 -5.01935091 14.08461919 -8.02734375 11.640625 C-9.46850663 8.21786315 -8.88292341 5.81957128 -8.02734375 2.265625 C-5.42029477 -0.34142398 -3.55396134 0.02657167 0 0 Z " fill="#6ED7F9" transform="translate(219.02734375,35.734375)"/>
</svg>
