<?xml version="1.0" encoding="UTF-8"?>
<svg version="1.1" xmlns="http://www.w3.org/2000/svg" width="512" height="512">
<path d="M0 0 C26.85815506 21.63166364 45.04031607 51.77599171 49.08837891 86.3815918 C51.03417198 108.43154617 48.40576715 127.47266771 37.2890625 146.65576172 C36.7940625 147.51685547 36.2990625 148.37794922 35.7890625 149.26513672 C24.62493559 167.15311279 5.73294272 180.44156193 -14.7109375 185.65576172 C-22.28726984 187.34442989 -29.58212765 188.01197192 -37.3359375 187.96826172 C-38.38136719 187.96334717 -39.42679687 187.95843262 -40.50390625 187.95336914 C-75.26289659 187.43358363 -105.99236389 171.8910291 -130.51953125 147.90966797 C-154.66884556 122.55477167 -165.31876799 89.16774297 -164.91796875 54.65185547 C-164.35000609 32.32012137 -154.15793137 11.64836516 -138.27490234 -3.90087891 C-99.78189812 -39.42548723 -38.76833884 -30.45925708 0 0 Z " fill="#A6D864" transform="translate(441.7109375,303.34423828125)"/>
<path d="M0 0 C26.85815506 21.63166364 45.04031607 51.77599171 49.08837891 86.3815918 C51.03417198 108.43154617 48.40576715 127.47266771 37.2890625 146.65576172 C36.7940625 147.51685547 36.2990625 148.37794922 35.7890625 149.26513672 C24.62493559 167.15311279 5.73294272 180.44156193 -14.7109375 185.65576172 C-22.28726984 187.34442989 -29.58212765 188.01197192 -37.3359375 187.96826172 C-38.38136719 187.96334717 -39.42679687 187.95843262 -40.50390625 187.95336914 C-75.26289659 187.43358363 -105.99236389 171.8910291 -130.51953125 147.90966797 C-154.66884556 122.55477167 -165.31876799 89.16774297 -164.91796875 54.65185547 C-164.35000609 32.32012137 -154.15793137 11.64836516 -138.27490234 -3.90087891 C-99.78189812 -39.42548723 -38.76833884 -30.45925708 0 0 Z " fill="#A6D864" transform="translate(185.7109375,47.34423828125)"/>
<path d="M0 0 C0.86109375 0.495 1.7221875 0.99 2.609375 1.5 C21.71199501 13.42220256 33.6366246 32.49792786 39.30859375 53.9140625 C46.11306876 84.28431818 37.5415647 118.0198374 21.16308594 143.95556641 C2.16332718 172.8326832 -26.88574283 192.32359435 -60.5 199.75 C-85.72679961 204.91548754 -109.64261453 202.95622338 -132 190 C-133.29164063 189.2575 -133.29164063 189.2575 -134.609375 188.5 C-154.03129803 176.37851612 -166.84938049 156.08655485 -172 134 C-177.83049475 102.34315268 -168.30854663 68.16199991 -150.40039062 41.95947266 C-130.14791462 13.62154162 -100.13384929 -4.62949597 -66 -11 C-42.43516553 -14.58868086 -20.63698481 -11.95924208 0 0 Z " fill="#A6D864" transform="translate(194,289)"/>
<path d="M0 0 C0.86109375 0.495 1.7221875 0.99 2.609375 1.5 C21.71199501 13.42220256 33.6366246 32.49792786 39.30859375 53.9140625 C46.11306876 84.28431818 37.5415647 118.0198374 21.16308594 143.95556641 C2.16332718 172.8326832 -26.88574283 192.32359435 -60.5 199.75 C-85.72679961 204.91548754 -109.64261453 202.95622338 -132 190 C-133.29164063 189.2575 -133.29164063 189.2575 -134.609375 188.5 C-154.03129803 176.37851612 -166.84938049 156.08655485 -172 134 C-177.83049475 102.34315268 -168.30854663 68.16199991 -150.40039062 41.95947266 C-130.14791462 13.62154162 -100.13384929 -4.62949597 -66 -11 C-42.43516553 -14.58868086 -20.63698481 -11.95924208 0 0 Z " fill="#A6D864" transform="translate(450,33)"/>
</svg>
