<?xml version="1.0" encoding="UTF-8"?>
<svg version="1.1" xmlns="http://www.w3.org/2000/svg" width="512" height="512">
<path d="M0 0 C0.90054108 -0.00701431 1.80108215 -0.01402863 2.72891235 -0.02125549 C5.61750351 -0.03865402 8.50588962 -0.0451074 11.39453125 -0.046875 C12.38190277 -0.04754974 13.36927429 -0.04822449 14.38656616 -0.04891968 C28.87791389 -0.03317157 42.94723376 0.41971425 57.20703125 3.203125 C58.5525708 3.44458252 58.5525708 3.44458252 59.92529297 3.69091797 C119.59156953 14.48747523 177.44760344 48.52511138 214.20703125 97.203125 C214.67786133 97.81929688 215.14869141 98.43546875 215.63378906 99.0703125 C246.99142786 140.3272437 268.1354406 191.63522706 268.41015625 243.99609375 C268.41717056 244.89663483 268.42418488 245.7971759 268.43141174 246.7250061 C268.44881027 249.61359726 268.45526365 252.50198337 268.45703125 255.390625 C268.45804337 256.87168228 268.45804337 256.87168228 268.45907593 258.38265991 C268.44332782 272.87400764 267.990442 286.94332751 265.20703125 301.203125 C265.04605957 302.10015137 264.88508789 302.99717773 264.71923828 303.92138672 C253.92268102 363.58766328 219.88504487 421.44369719 171.20703125 458.203125 C170.59085937 458.67395508 169.9746875 459.14478516 169.33984375 459.62988281 C128.08291255 490.98752161 76.77492919 512.13153435 24.4140625 512.40625 C23.51352142 512.41326431 22.61298035 512.42027863 21.68515015 512.42750549 C18.79655899 512.44490402 15.90817288 512.4513574 13.01953125 512.453125 C12.03215973 512.45379974 11.04478821 512.45447449 10.02749634 512.45516968 C-4.46385139 512.43942157 -18.53317126 511.98653575 -32.79296875 509.203125 C-33.68999512 509.04215332 -34.58702148 508.88118164 -35.51123047 508.71533203 C-95.17750703 497.91877477 -153.03354094 463.88113862 -189.79296875 415.203125 C-190.26379883 414.58695312 -190.73462891 413.97078125 -191.21972656 413.3359375 C-222.57736536 372.0790063 -243.7213781 320.77102294 -243.99609375 268.41015625 C-244.00310806 267.50961517 -244.01012238 266.6090741 -244.01734924 265.6812439 C-244.03474777 262.79265274 -244.04120115 259.90426663 -244.04296875 257.015625 C-244.04364349 256.02825348 -244.04431824 255.04088196 -244.04501343 254.02359009 C-244.02926532 239.53224236 -243.5763795 225.46292249 -240.79296875 211.203125 C-240.55151123 209.85758545 -240.55151123 209.85758545 -240.30517578 208.48486328 C-229.50861852 148.81858672 -195.47098237 90.96255281 -146.79296875 54.203125 C-146.17679687 53.73229492 -145.560625 53.26146484 -144.92578125 52.77636719 C-103.66885005 21.41872839 -52.36086669 0.27471565 0 0 Z M-114.79296875 124.203125 C-119.79296875 129.203125 -119.79296875 129.203125 -121.45703125 130.7265625 C-152.10739172 159.61105858 -169.23089523 205.80164445 -170.91845703 247.28808594 C-172.09305309 287.34240194 -162.42645591 325.81873143 -139.79296875 359.203125 C-134.01423572 354.4004933 -128.69363841 349.24579073 -123.38867188 343.92822266 C-122.47230453 343.01360764 -121.55593719 342.09899261 -120.61180115 341.15666199 C-118.11569214 338.66508261 -115.62272163 336.17038558 -113.13046837 333.67495012 C-110.51007363 331.05200781 -107.88722183 328.43152424 -105.26477051 325.81063843 C-100.86172616 321.40940912 -96.46078446 317.00608557 -92.06103516 312.6015625 C-86.9909078 307.5259972 -81.91719289 302.45403956 -76.84159327 297.38394701 C-72.46755332 293.01446122 -68.09548537 288.64300946 -63.72502661 284.26994169 C-61.12195909 281.6653236 -58.51824087 279.06136564 -55.91273499 276.45918655 C-53.00469527 273.55460121 -50.10080121 270.64590426 -47.19726562 267.73681641 C-46.34510971 266.88668472 -45.4929538 266.03655304 -44.61497498 265.16065979 C-41.1586796 261.69216421 -37.76115936 258.22553548 -34.58677673 254.49594116 C-28.98211937 247.99058704 -22.76394417 242.04375035 -16.68774414 235.984375 C-15.25794341 234.55485669 -13.82836353 233.12511746 -12.39898682 231.69517517 C-8.5360575 227.83196002 -4.67006199 223.97182672 -0.80349278 220.1122551 C3.24352424 216.07150716 7.28769244 212.02791002 11.33216858 207.98461914 C18.98332089 200.33656968 26.63701782 192.69107201 34.29164082 185.04649639 C43.00945818 176.3398727 51.72442194 167.63039505 60.43915164 158.920681 C78.35861325 141.01166009 96.28164089 123.10621159 114.20703125 105.203125 C113.01454539 101.62566743 112.28228367 101.36095577 109.11328125 99.53125 C107.82780396 98.78693726 107.82780396 98.78693726 106.51635742 98.02758789 C105.58927979 97.50801514 104.66220215 96.98844238 103.70703125 96.453125 C102.2825769 95.64959595 102.2825769 95.64959595 100.8293457 94.82983398 C33.39392484 57.47238411 -60.98953254 66.249138 -114.79296875 124.203125 Z M161.45417732 154.83178043 C160.68296533 155.60337214 159.91175334 156.37496386 159.11717129 157.16993713 C158.23039776 158.05471961 157.34362424 158.93950209 156.42997879 159.85109615 C155.43459297 160.84933561 154.43925321 161.84762099 153.44395447 162.84594727 C152.39560581 163.89386038 151.34703767 164.94155396 150.29826742 165.98904514 C147.40226968 168.88279443 144.50942009 171.77967356 141.61704624 174.67704439 C138.50295199 177.79543796 135.3859882 180.91096087 132.2693634 184.02682495 C126.86511752 189.43054527 121.46271253 194.83610046 116.06153679 200.2428894 C108.25224109 208.06029571 100.44020113 215.87495483 92.62747831 223.68893588 C79.95339121 236.36521418 67.2815411 249.04372626 54.61108398 261.72363281 C42.29942674 274.04446238 29.98672462 286.36424621 17.67260742 298.68261719 C16.91417327 299.44131406 16.15573912 300.20001094 15.37432211 300.98169863 C11.56965583 304.78766991 7.7649689 308.59362055 3.96027172 312.39956093 C-27.62734277 343.99755018 -59.21133279 375.5991604 -90.79296875 407.203125 C-84.901617 412.00783162 -78.43198785 415.55742087 -71.79296875 419.203125 C-70.84292969 419.73292969 -69.89289063 420.26273437 -68.9140625 420.80859375 C-28.56454486 442.21737053 21.74237164 444.8468223 65.03125 431.859375 C92.7679723 423.13991605 120.22525979 408.7219558 140.20703125 387.203125 C145.20703125 382.203125 145.20703125 382.203125 146.78027344 380.68261719 C150.8784871 376.68192476 154.53324244 372.54181064 157.95703125 367.953125 C158.46580811 367.2712915 158.97458496 366.58945801 159.4987793 365.88696289 C187.76344949 327.15357269 200.75250142 277.88248623 194.01953125 230.265625 C189.75783675 203.28518709 180.48213523 175.46935421 164.20703125 153.203125 C162.93034517 153.08967888 162.93034517 153.08967888 161.45417732 154.83178043 Z " fill="#D15241" transform="translate(243.79296875,-0.203125)"/>
</svg>
