<?xml version="1.0" encoding="UTF-8"?>
<svg version="1.1" xmlns="http://www.w3.org/2000/svg" width="361" height="361">
<path d="M0 0 C3.96520183 3.76694174 5.64797132 7.0876039 5.8515625 12.53515625 C5.75068803 20.35221708 3.21124447 27.75707982 1 35.1875 C0.77280273 35.96434143 0.54560547 36.74118286 0.31152344 37.54156494 C-9.4127482 70.77556256 -23.5072193 101.67562555 -44.5 129.375 C-44.93135254 129.94911621 -45.36270508 130.52323242 -45.80712891 131.11474609 C-50.6549016 137.53773518 -55.69444782 143.74745995 -61.125 149.6875 C-61.60138916 150.22270264 -62.07777832 150.75790527 -62.56860352 151.30932617 C-65.52244021 154.54048711 -68.57200977 157.24701749 -72.07421875 159.87890625 C-80.83453684 166.79318226 -80.83453684 166.79318226 -85.15429688 176.76269531 C-85.55648153 184.04606783 -84.91263452 191.22277255 -84.10780334 198.45683289 C-83.3705615 205.08452841 -83.24147654 211.65016301 -83.25 218.3125 C-83.2301001 219.31732422 -83.2102002 220.32214844 -83.18969727 221.35742188 C-83.13263474 230.5061867 -85.06209446 236.67209788 -91.36279297 243.43261719 C-95.36757636 247.07233122 -99.92424001 249.7465704 -104.5625 252.5 C-106.70246248 253.80233509 -108.84177033 255.10574636 -110.98046875 256.41015625 C-112.06247559 257.06516113 -113.14448242 257.72016602 -114.25927734 258.39501953 C-119.3449909 261.5022319 -124.35916247 264.71913802 -129.375 267.9375 C-132.74164361 270.0968578 -136.11484793 272.24476622 -139.5 274.375 C-140.83695923 275.22130981 -140.83695923 275.22130981 -142.20092773 276.0847168 C-143.07950439 276.629104 -143.95808105 277.17349121 -144.86328125 277.734375 C-145.65001221 278.22518555 -146.43674316 278.71599609 -147.24731445 279.22167969 C-151.03535861 281.16106633 -153.3101101 281.15616591 -157.5 280.375 C-160.53805755 278.29395315 -162.19697874 276.54734645 -163.13110352 272.93334961 C-163.57885501 269.7910505 -163.87354868 266.66411468 -164.125 263.5 C-164.23561768 262.32993408 -164.34623535 261.15986816 -164.46020508 259.9543457 C-164.69713436 257.43246847 -164.92473564 254.90970121 -165.14404297 252.38623047 C-165.50705745 248.22353633 -165.92412289 244.06706656 -166.34765625 239.91015625 C-166.89018691 234.53859158 -167.43126834 229.16696571 -167.94921875 223.79296875 C-168.05580811 222.69750732 -168.16239746 221.6020459 -168.2722168 220.47338867 C-168.87719941 212.24419863 -168.87719941 212.24419863 -167.0625 208.0625 C-163.94737827 204.79542111 -162.09760049 204.33368012 -157.6875 204.15234375 C-155.5 204.375 -155.5 204.375 -152.5625 205.8125 C-147.33178528 212.31126677 -147.77628441 222.27749417 -147.06738281 230.32080078 C-146.87479513 232.50232066 -146.67254409 234.6827825 -146.46875 236.86328125 C-145.93418437 242.71194517 -145.41534006 248.49508482 -145.5 254.375 C-145.02393311 254.07432617 -144.54786621 253.77365234 -144.05737305 253.46386719 C-142.60739464 252.54809135 -141.15735601 251.63241087 -139.70727539 250.71679688 C-138.01201879 249.64586644 -136.31720209 248.57423936 -134.62280273 247.50195312 C-130.14131212 244.66727283 -125.65326348 241.84434705 -121.1484375 239.046875 C-120.29548096 238.51481445 -119.44252441 237.98275391 -118.5637207 237.43457031 C-116.92691514 236.4139833 -115.28751981 235.39753518 -113.64526367 234.38574219 C-111.56801841 233.08698839 -109.52827724 231.74859579 -107.5 230.375 C-106.66984375 229.81296875 -105.8396875 229.2509375 -104.984375 228.671875 C-102.46994332 224.78112282 -103.04944804 220.64094962 -103.1875 216.125 C-103.21070313 214.610271 -103.21070313 214.610271 -103.234375 213.06494141 C-103.40911342 203.62178589 -103.84741983 194.18507162 -104.26171875 184.75 C-104.30216309 183.82574219 -104.34260742 182.90148437 -104.38427734 181.94921875 C-104.45604908 180.3526762 -104.53123616 178.75627846 -104.61181641 177.16015625 C-105.06762838 167.71666709 -105.06762838 167.71666709 -103.125 163.125 C-100.08003046 159.93503191 -96.86124763 157.02852418 -93.546875 154.12109375 C-83.69370155 145.35941977 -74.51833943 135.84104304 -66.5 125.375 C-65.57050013 124.1977685 -64.64079973 123.0206953 -63.7109375 121.84375 C-55.69547115 111.56509315 -48.93120924 100.7009599 -42.5 89.375 C-42.08089355 88.6413623 -41.66178711 87.90772461 -41.22998047 87.15185547 C-29.19816262 65.89710944 -21.82170485 42.85946099 -15.5 19.375 C-55.69330926 30.25936089 -92.7879873 46.06664165 -124.79296875 73.328125 C-128.02284699 76.00198939 -130.42425482 77.75345435 -134.6875 78.0625 C-138.5 77.375 -138.5 77.375 -141.5 75.4375 C-143.75652854 71.98219068 -144.6122322 69.92853805 -144.34765625 65.82421875 C-142.40374754 60.20748713 -137.0682535 56.86752457 -132.5 53.375 C-131.94328613 52.93929687 -131.38657227 52.50359375 -130.81298828 52.0546875 C-101.30105775 29.07016091 -67.9225859 13.24165936 -32.01660156 3.09033203 C-29.70969511 2.43460484 -27.41316001 1.75142658 -25.1171875 1.05859375 C-16.7159284 -1.41958682 -8.27384068 -3.84142603 0 0 Z " fill="#A6D864" transform="translate(315.5,40.625)"/>
<path d="M0 0 C0.94544678 0.01200439 1.89089355 0.02400879 2.86499023 0.03637695 C6.41113811 0.10071299 9.95488908 0.20508552 13.5 0.3125 C15.12776309 0.35561398 16.75553028 0.39857329 18.38330078 0.44140625 C22.87088915 0.56461698 27.3564709 0.72134592 31.84228516 0.89736938 C33.64882219 0.96552797 35.45565477 1.02627579 37.26269531 1.07943726 C39.83422198 1.15843593 42.40265841 1.2687507 44.97265625 1.38671875 C45.74372208 1.40468506 46.5147879 1.42265137 47.30921936 1.44116211 C52.94322539 1.74838851 55.56919914 3.23851298 59.5 7.3125 C60.88666474 11.14622017 60.71605148 12.75076614 59.25 16.5625 C57.5 19.3125 57.5 19.3125 54.5 21.3125 C52.01895259 21.48907635 49.66594249 21.54557531 47.1875 21.5 C46.07121216 21.49033203 46.07121216 21.49033203 44.93237305 21.48046875 C38.88537775 21.40099289 32.85178439 21.11352352 26.8125 20.8125 C19.00180457 20.43724447 11.19408655 20.12457594 3.375 20 C1.97954956 19.95552734 1.97954956 19.95552734 0.5559082 19.91015625 C-4.38657131 19.81486504 -4.38657131 19.81486504 -8.7734375 21.796875 C-11.27338122 25.43932693 -13.68248407 29.11340571 -16 32.875 C-17.05713024 34.57041316 -18.11442715 36.26572242 -19.171875 37.9609375 C-19.71521484 38.83588867 -20.25855469 39.71083984 -20.81835938 40.61230469 C-23.60642022 45.08906906 -26.42973195 49.54348437 -29.25 54 C-30.26578912 55.60796925 -31.28142949 57.21603248 -32.296875 58.82421875 C-33.03125 59.98697917 -33.765625 61.14973958 -34.5 62.3125 C-33.43265625 62.36148438 -32.3653125 62.41046875 -31.265625 62.4609375 C-22.8095046 62.87371214 -14.3690118 63.41766631 -5.9375 64.1875 C-4.72658691 64.28683838 -4.72658691 64.28683838 -3.49121094 64.38818359 C-1.14053433 64.61530913 1.16966108 64.93059582 3.5 65.3125 C4.21526855 65.42231201 4.93053711 65.53212402 5.66748047 65.64526367 C13.77287128 67.56639979 18.95813537 74.08250266 24.5 79.875 C25.55724127 80.95380108 26.6158257 82.03128754 27.67578125 83.10742188 C36.37591558 91.99720515 36.37591558 91.99720515 36.8125 96.625 C36.45124058 100.88786111 35.48007946 102.33242054 32.5 105.3125 C29.23952371 106.94273814 27.12198965 106.7798535 23.5 106.3125 C20.54917657 104.25258835 18.01815995 101.87644468 15.5 99.3125 C9.73361903 104.09458863 4.46542964 109.24695189 -0.79296875 114.578125 C-2.57473685 116.37252785 -4.35664192 118.1667947 -6.13867188 119.9609375 C-8.92535006 122.77251655 -11.71039977 125.58567279 -14.49291992 128.40136719 C-17.19274247 131.13131692 -19.89868726 133.85507754 -22.60546875 136.578125 C-23.85398872 137.84683441 -23.85398872 137.84683441 -25.12773132 139.14117432 C-25.90566544 139.92248718 -26.68359955 140.70380005 -27.48510742 141.50878906 C-28.50600716 142.54087494 -28.50600716 142.54087494 -29.54753113 143.59381104 C-32.79889675 146.45587265 -34.62395942 147.34378716 -39 147.1875 C-42.89257014 146.21435747 -44.24897767 145.60245572 -46.5 142.3125 C-47.51832504 138.57864153 -48.04383736 136.39827174 -46.28337097 132.88349915 C-44.39576321 130.1622269 -42.37660815 127.94890307 -40.02856445 125.61401367 C-39.12785721 124.71345749 -38.22714996 123.81290131 -37.29914856 122.88505554 C-36.32063339 121.91675154 -35.3420084 120.9485585 -34.36328125 119.98046875 C-33.3582209 118.97914219 -32.35360391 117.97737044 -31.34941101 116.97517395 C-28.71525085 114.34862139 -26.07513855 111.72813277 -23.43371582 109.10888672 C-20.73537326 106.43106465 -18.04273859 103.74751648 -15.34960938 101.06445312 C-10.07195731 95.80820025 -4.78800026 90.55834423 0.5 85.3125 C-0.53570381 85.2164019 -0.53570381 85.2164019 -1.59233093 85.11836243 C-8.11231295 84.50940007 -14.62982554 83.87898719 -21.14541912 83.22465229 C-24.49495487 82.88903028 -27.8448666 82.56163551 -31.19702148 82.25317383 C-35.05429185 81.89407574 -38.90779645 81.50650402 -42.76171875 81.11328125 C-44.56040657 80.95512688 -44.56040657 80.95512688 -46.39543152 80.79377747 C-55.67036522 79.80282497 -55.67036522 79.80282497 -58.75854492 76.93774414 C-60.68745268 74.02991502 -61.19815912 71.91339192 -60.95800781 68.41894531 C-60.10832806 64.51114314 -58.06935504 61.48166279 -55.875 58.1875 C-55.38644531 57.42252197 -54.89789063 56.65754395 -54.39453125 55.86938477 C-53.33526492 54.21394928 -52.26823301 52.56346251 -51.19433594 50.91748047 C-49.4535928 48.24115059 -47.74293048 45.54759495 -46.0390625 42.84765625 C-43.6841228 39.11745264 -41.31576385 35.39646626 -38.93359375 31.68359375 C-36.73360416 28.25352891 -34.559043 24.80994481 -32.41015625 21.34765625 C-31.46095071 19.8359292 -30.51173271 18.32420999 -29.5625 16.8125 C-29.15064453 16.13695068 -28.73878906 15.46140137 -28.31445312 14.76538086 C-21.37889069 3.81236884 -12.75305496 -0.25983453 0 0 Z " fill="#A6D864" transform="translate(99.5,127.6875)"/>
<path d="M0 0 C2.62526276 1.75017517 2.94398718 2.80180078 3.8125 5.875 C4.10575475 10.76257921 2.72422015 13.17211696 -0.49023438 16.84667969 C-1.5169065 17.87959006 -2.5518957 18.90428024 -3.59375 19.921875 C-4.14107788 20.46732971 -4.68840576 21.01278442 -5.25231934 21.57476807 C-6.40543417 22.721184 -7.56212966 23.86400829 -8.72216797 25.00341797 C-10.50103934 26.75102107 -12.26891187 28.50917599 -14.03515625 30.26953125 C-15.15823165 31.38344049 -16.28190896 32.49674326 -17.40625 33.609375 C-17.9364978 34.13537292 -18.46674561 34.66137085 -19.01306152 35.20330811 C-22.47288036 38.59582682 -23.90782306 39.89257276 -28.8125 40.375 C-32.2013027 40.31327317 -33.01699814 39.98866791 -36 38 C-38.05420135 34.91869798 -38.86141326 32.81507781 -38.60595703 29.08325195 C-37.87027148 26.55399941 -36.83130973 25.29456487 -35.0546875 23.35546875 C-34.10432617 22.31531616 -34.10432617 22.31531616 -33.13476562 21.25415039 C-29.26087896 17.16362024 -25.34629833 13.12111894 -21.375 9.125 C-20.12589844 7.84496094 -20.12589844 7.84496094 -18.8515625 6.5390625 C-18.04203125 5.724375 -17.2325 4.9096875 -16.3984375 4.0703125 C-15.67317871 3.33570801 -14.94791992 2.60110352 -14.20068359 1.84423828 C-9.23148815 -2.32009524 -5.98346439 -2.32690282 0 0 Z " fill="#A6D864" transform="translate(126,270)"/>
</svg>
