<?xml version="1.0" encoding="UTF-8"?>
<svg version="1.1" xmlns="http://www.w3.org/2000/svg" width="512" height="512">
<path d="M0 0 C1.16740723 0.57041016 1.16740723 0.57041016 2.35839844 1.15234375 C52.19800813 25.73961582 90.7335235 69.63177915 109.36254883 121.95068359 C127.6576749 175.92284959 124.74260369 235.15432062 99.97290039 286.65209961 C74.9283261 337.22245776 31.10654335 376.72937317 -22.25683594 395.41333008 C-77.39191844 413.89300978 -137.25219617 410.43781614 -189.5 384.5625 C-239.70424498 359.01906494 -278.29592622 314.3972935 -296.375 261.0625 C-314.41129842 205.6127335 -309.57389338 145.65854573 -283.14233398 93.70874023 C-257.03484206 43.76456192 -211.52776932 6.03997728 -158.06396484 -11.3503418 C-106.12368895 -27.41786346 -48.94107341 -24.13767728 0 0 Z " fill="#78A3FD" transform="translate(349,63)"/>
<path d="M0 0 C5.24725987 3.17963098 8.42193267 7.06082662 10.234375 12.9296875 C11.05798491 17.15517768 11.36871893 21.16655115 11.39500427 25.46832275 C11.4050499 26.76631302 11.41509552 28.06430328 11.42544556 29.40162659 C11.43147451 30.82797183 11.4373596 32.25431769 11.44311523 33.68066406 C11.45266275 35.19240022 11.46255429 36.70413425 11.47276306 38.21586609 C11.50403763 43.16732219 11.52439904 48.11879454 11.54296875 53.0703125 C11.54791473 54.33645716 11.54791473 54.33645716 11.55296063 55.6281805 C11.5837306 63.5963801 11.61042103 71.56458371 11.62737942 79.53282547 C11.64928288 89.70266887 11.69127121 99.87198429 11.76081699 110.04161668 C11.808134 117.20531355 11.83232295 124.36886831 11.8395763 131.53271651 C11.84451973 135.80553696 11.85947572 140.07776094 11.8993206 144.35041046 C11.93633878 148.37258764 11.94454772 152.39383135 11.93131447 156.41614723 C11.93136816 157.8858674 11.94156001 159.35563059 11.9630661 160.82519341 C12.09036833 170.02123532 11.24901956 176.71159737 5.234375 183.9296875 C0.67716492 188.33225195 -3.38778919 189.29768181 -9.703125 189.6171875 C-15.37727179 189.38633356 -19.15534951 188.34989878 -23.80078125 185.12109375 C-31.06084753 177.02388265 -31.48366555 169.30739841 -31.38085938 158.74633789 C-31.38436578 157.224303 -31.3900302 155.7022718 -31.39767456 154.18025208 C-31.41185907 150.06842834 -31.39492304 145.95727849 -31.37138939 141.8455193 C-31.35119465 137.52872498 -31.35716448 133.21195631 -31.35949707 128.89512634 C-31.35944359 121.64652478 -31.33974035 114.39818463 -31.30761719 107.1496582 C-31.27074214 98.78863882 -31.26194072 90.4279618 -31.2689147 82.0668717 C-31.27523706 74.0006699 -31.26443251 65.93458457 -31.24494934 57.8684063 C-31.23680907 54.44640877 -31.23405955 51.02447106 -31.23564148 47.60246468 C-31.23652548 43.56642406 -31.22216694 39.53070481 -31.19641495 35.49474907 C-31.18930003 34.02024266 -31.18714677 32.54570194 -31.19053268 31.07118225 C-31.20780095 21.77243407 -30.95610981 13.17119826 -26.015625 5.0546875 C-18.72417959 -1.83167761 -9.62197001 -3.72375675 0 0 Z " fill="#EAEAED" transform="translate(265.765625,130.0703125)"/>
<path d="M0 0 C5.27674382 3.5677275 9.113217 7.72028601 10.625 14 C10.85848177 15.47540607 11.06943609 16.95468731 11.25 18.4375 C11.4975 19.8915625 11.4975 19.8915625 11.75 21.375 C10.70938908 27.7487419 6.90284441 33.66455089 1.75 37.5625 C-4.0132278 40.64875826 -10.4393068 40.43392524 -16.75 39.4375 C-22.8395289 37.11684859 -27.14634709 32.9040838 -30.00390625 27.0703125 C-31.83833688 20.59698138 -30.95212561 13.93079757 -28.0625 7.9375 C-20.80771211 0.09448606 -10.52569238 -5.43788542 0 0 Z " fill="#E9EAED" transform="translate(265.75,343.5625)"/>
</svg>
